<?xml version="1.0"?>
<!DOCTYPE svg PUBLIC "-//W3C//DTD SVG 1.1//EN" "http://www.w3.org/Graphics/SVG/1.1/DTD/svg11.dtd">
<!--Phoronix Test Suite v8.6.1 [ http://www.phoronix-test-suite.com/ ]-->
<svg xmlns="http://www.w3.org/2000/svg" xmlns:xlink="http://www.w3.org/1999/xlink" version="1.1" font-family="sans-serif, droid-sans, helvetica, verdana, tahoma" viewbox="0 0 600 322" width="600" height="322" preserveAspectRatio="xMinYMin meet"><rect x="0" y="0" width="600" height="322" fill="#FEFEFE" stroke="#757575" stroke-width="2"/><g stroke="#757575" stroke-width="1"><line x1="312" y1="64" x2="312" y2="249"/><line x1="312" y1="248" x2="586" y2="248"/></g><a xlink:href="http://www.phoronix-test-suite.com/" xlink:show="new"><text x="585" y="59" font-size="8" fill="#065695" text-anchor="end" xlink:show="new">PHORONIX-TEST-SUITE.COM</text></a><polygon points="321,56 312,60.5 312,51.5" fill="#065695" stroke="#949494" stroke-width="1"/><text x="324" y="59" font-size="8" fill="#065695" text-anchor="start">MB/s, More Is Better</text><rect x="0" y="0" width="600" height="48" fill="#231f20"/><a xlink:href="https://openbenchmarking.org/test/pts/aio-stress-1.1.1" xlink:show="new"><text x="6" y="19" font-size="17" fill="#FEFEFE" text-anchor="start" xlink:show="new" font-weight="bold">AIO-Stress v0.21</text></a><text x="6" y="36" font-size="11" font-weight="bold" fill="#FEFEFE" text-anchor="start">Random Write</text><path d="m74 22v9m-5-16v16m-5-28v28m-23-2h12.5c2.485281 0 4.5-2.014719 4.5-4.5s-2.014719-4.5-4.5-4.5h-8c-2.485281 0-4.5-2.014719-4.5-4.5s2.014719-4.5 4.5-4.5h12.5m-21 5h-11m11 13h-2c-4.970563 0-9-4.029437-9-9v-20m-24 40v-20c0-4.970563 4.0294373-9 9-9 4.970563 0 9 4.029437 9 9s-4.029437 9-9 9h-9" stroke="#ffffff" stroke-width="4" fill="none" transform="translate(508,4)"/><line x1="312" y1="110" x2="312" y2="248" stroke="#757575" stroke-width="11" stroke-dasharray="1,45"/><g font-size="10" fill="#231f20" font-weight="bold"><text x="307" y="85" text-anchor="end">Extreme SSD - Intel Core i7-8750H</text><text x="307" y="131" text-anchor="end">Ultra USB 3.0 - 12 x Intel Core</text><text x="307" y="177" text-anchor="end">VBOX HDD - Intel Core i7-8750H</text><text x="307" y="223" text-anchor="end">VMware Virtual S - 4 x Intel Core i7-8750H</text></g><g font-size="10" fill="#065695" text-anchor="middle"><text x="360" y="263">800</text><text x="406" y="263">1600</text><text x="452" y="263">2400</text><text x="498" y="263">3200</text><text x="544" y="263">4000</text></g><g stroke="#BABABA" stroke-width="1"><line x1="360" y1="64" x2="360" y2="243" stroke-dasharray="5,5"/><line x1="360" y1="244" x2="360" y2="253"/><line x1="406" y1="64" x2="406" y2="243" stroke-dasharray="5,5"/><line x1="406" y1="244" x2="406" y2="253"/><line x1="452" y1="64" x2="452" y2="243" stroke-dasharray="5,5"/><line x1="452" y1="244" x2="452" y2="253"/><line x1="498" y1="64" x2="498" y2="243" stroke-dasharray="5,5"/><line x1="498" y1="244" x2="498" y2="253"/><line x1="544" y1="64" x2="544" y2="243" stroke-dasharray="5,5"/><line x1="544" y1="244" x2="544" y2="253"/></g><g stroke="#949494" stroke-width="1"><rect x="312" y="70" height="34" width="204" fill="#073e69" xlink:title="Extreme SSD - Intel Core i7-8750H: 3589"/><rect x="312" y="116" height="34" width="154" fill="#073e69" xlink:title="Ultra USB 3.0 - 12 x Intel Core: 2715"/><rect x="312" y="162" height="34" width="107" fill="#073e69" xlink:title="VBOX HDD - Intel Core i7-8750H: 1887"/><rect x="312" y="208" height="34" width="93" fill="#073e69" xlink:title="VMware Virtual S - 4 x Intel Core i7-8750H: 1637"/></g><g font-size="8" fill="#065695" text-anchor="end"><text y="101" x="307">SE +/- 7.41</text><text y="147" x="307">SE +/- 41.76</text><text y="193" x="307">SE +/- 75.84</text><text y="239" x="307">SE +/- 85.45</text></g><g font-size="10" fill="#FFFFFF" font-weight="bold" text-anchor="end"><text x="511" y="93">3589</text><text x="461" y="139">2715</text><text x="414" y="185">1887</text><text x="400" y="231">1637</text></g><g stroke="#757575" stroke-width="1"><line x1="400" y1="208" x2="400" y2="216"/><line x1="410" y1="208" x2="410" y2="216"/><line x1="400" y1="208" x2="410" y2="208"/></g><rect x="0" y="270" width="600" height="52" fill="#231f20"/><a xlink:href="https://www.phoronix-test-suite.com/" xlink:show="new"><text x="585" y="282" font-size="9" fill="#FEFEFE" text-anchor="end" xlink:show="new">Phoronix Test Suite 8.6.1</text></a><text x="5" y="296" font-size="8" fill="#FEFEFE" text-anchor="start" xlink:title="-pthread -laio" width="595">1. (CC) gcc options: -pthread -laio</text></svg>
