<?xml version="1.0"?>
<!DOCTYPE svg PUBLIC "-//W3C//DTD SVG 1.1//EN" "http://www.w3.org/Graphics/SVG/1.1/DTD/svg11.dtd">
<!--Phoronix Test Suite v8.6.1 [ http://www.phoronix-test-suite.com/ ]-->
<svg xmlns="http://www.w3.org/2000/svg" xmlns:xlink="http://www.w3.org/1999/xlink" version="1.1" font-family="sans-serif, droid-sans, helvetica, verdana, tahoma" viewbox="0 0 1394 168" width="1394" height="168" preserveAspectRatio="xMinYMin meet"><rect x="0" y="0" width="1394" height="168" fill="#FEFEFE" stroke="#757575" stroke-width="2"/><rect x="1" y="1" width="1393" height="167" fill="#FEFEFE" stroke="#757575" stroke-width="1"/><path d="m74 22v9m-5-16v16m-5-28v28m-23-2h12.5c2.485281 0 4.5-2.014719 4.5-4.5s-2.014719-4.5-4.5-4.5h-8c-2.485281 0-4.5-2.014719-4.5-4.5s2.014719-4.5 4.5-4.5h12.5m-21 5h-11m11 13h-2c-4.970563 0-9-4.029437-9-9v-20m-24 40v-20c0-4.970563 4.0294373-9 9-9 4.970563 0 9 4.029437 9 9s-4.029437 9-9 9h-9" stroke="#000000" stroke-width="4" fill="none" transform="translate(31,43)"/><line x1="142" y1="96" x2="1394" y2="96" stroke="#BABABA" stroke-width="112" stroke-dasharray="313,313"/><line x1="697" y1="88" x2="697" y2="152" stroke="#949494" stroke-width="1394" stroke-dasharray="16,16"/><line x1="142" y1="96" x2="1394" y2="96" stroke="#757575" stroke-width="112" stroke-dasharray="1,312"/><rect x="1" y="1" width="1392" height="40" fill="#231f20"/><text x="5" y="19" font-size="17" fill="#FEFEFE" text-anchor="start">Unpacking The Linux Kernel</text><text x="5" y="33" font-size="11" fill="#FEFEFE" text-anchor="start">linux-4.15.tar.xz</text><line x1="1" y1="40" x2="1393" y2="40" stroke="#757575" stroke-width="1"/><g font-size="10" font-weight="bold" fill="#065695" text-anchor="end"><text x="140" y="100">Results</text><text x="140" y="116">Difference</text><text x="140" y="132">Standard Error</text><text x="140" y="148">Standard Deviation</text></g><g font-size="10" fill="#065695" font-weight="bold" text-anchor="middle" dominant-baseline="text-before-edge"><text x="299" y="64">Extreme SSD - Intel Core i7-8750H</text><text x="612" y="64">Ultra USB 3.0 - 12 x Intel Core</text><text x="925" y="64">VBOX HDD - Intel Core i7-8750H</text><text x="1238" y="64">VMware Virtual S - 4 x Intel Core i7-8750H</text></g><g fill="#BABABA"/><g text-anchor="middle" font-size="10" fill="#065695"><text x="299" y="101" xlink:title="STD Dev: 0.59%;  STD Error: 0.02" fill="#005a00">5.42</text><text x="299" y="117">1.22x</text><text x="299" y="133">0.02</text><text x="299" y="149">0.59%</text><text x="612" y="101" xlink:title="STD Dev: 9.85%;  STD Error: 0.18">6.31</text><text x="612" y="117">1.09x</text><text x="612" y="133">0.18</text><text x="612" y="149">9.85%</text><text x="925" y="101" xlink:title="STD Dev: 4.55%;  STD Error: 0.07">6.24</text><text x="925" y="117">1.10x</text><text x="925" y="133">0.07</text><text x="925" y="149">4.55%</text><text x="1238" y="101" xlink:title="STD Dev: 8.69%;  STD Error: 0.15" fill="#C80000">6.97</text><text x="1238" y="117">1.00x</text><text x="1238" y="133">0.15</text><text x="1238" y="149">8.69%</text></g><line x1="697" y1="88" x2="697" y2="152" stroke="#949494" stroke-width="1394" stroke-dasharray="1,15"/><rect x="0" y="152" width="1394" height="16" fill="#231f20"/><a xlink:href="http://www.phoronix-test-suite.com/" xlink:show="new"><text x="1392" y="165" font-size="10" fill="#FFFFFF" text-anchor="end" xlink:show="new">PHORONIX-TEST-SUITE.COM</text></a></svg>
