<?xml version="1.0"?>
<!DOCTYPE svg PUBLIC "-//W3C//DTD SVG 1.1//EN" "http://www.w3.org/Graphics/SVG/1.1/DTD/svg11.dtd">
<!--Phoronix Test Suite v8.6.1 [ http://www.phoronix-test-suite.com/ ]-->
<svg xmlns="http://www.w3.org/2000/svg" xmlns:xlink="http://www.w3.org/1999/xlink" version="1.1" font-family="sans-serif, droid-sans, helvetica, verdana, tahoma" viewbox="0 0 1646 169" width="1646" height="169" preserveAspectRatio="xMinYMin meet"><rect x="0" y="0" width="1646" height="169" fill="#FEFEFE" stroke="#757575" stroke-width="2"/><rect x="1" y="1" width="1645" height="168" fill="#FEFEFE" stroke="#757575" stroke-width="1"/><path d="m74 22v9m-5-16v16m-5-28v28m-23-2h12.5c2.485281 0 4.5-2.014719 4.5-4.5s-2.014719-4.5-4.5-4.5h-8c-2.485281 0-4.5-2.014719-4.5-4.5s2.014719-4.5 4.5-4.5h12.5m-21 5h-11m11 13h-2c-4.970563 0-9-4.029437-9-9v-20m-24 40v-20c0-4.970563 4.0294373-9 9-9 4.970563 0 9 4.029437 9 9s-4.029437 9-9 9h-9" stroke="#000000" stroke-width="4" fill="none" transform="translate(157,28)"/><line x1="394" y1="89" x2="1646" y2="89" stroke="#BABABA" stroke-width="128" stroke-dasharray="313,313"/><line x1="823" y1="73" x2="823" y2="153" stroke="#949494" stroke-width="1646" stroke-dasharray="16,16"/><line x1="394" y1="89" x2="1646" y2="89" stroke="#757575" stroke-width="128" stroke-dasharray="1,312"/><rect x="1" y="1" width="1644" height="25" fill="#231f20"/><text x="5" y="19" font-size="17" fill="#FEFEFE" text-anchor="start">Disk</text><line x1="1" y1="25" x2="1645" y2="25" stroke="#757575" stroke-width="1"/><g font-size="10" font-weight="bold" fill="#065695" text-anchor="end"><a xlink:href="https://openbenchmarking.org/test/pts/aio-stress-1.1.1" xlink:show="new"><text x="392" y="85">aio-stress: Random Write</text></a><a xlink:href="https://openbenchmarking.org/test/pts/fs-mark-1.0.2" xlink:show="new"><text x="392" y="101">fs-mark: 1000 Files, 1MB Size</text></a><a xlink:href="https://openbenchmarking.org/test/pts/unpack-linux-1.1.1" xlink:show="new"><text x="392" y="117">unpack-linux: linux-4.15.tar.xz</text></a><a xlink:href="https://openbenchmarking.org/test/pts/postmark-1.1.1" xlink:show="new"><text x="392" y="133">postmark: Disk Transaction Performance</text></a><a xlink:href="https://openbenchmarking.org/test/pts/compress-gzip-1.2.0" xlink:show="new"><text x="392" y="149">compress-gzip: Linux Source Tree Archiving To .tar.gz</text></a></g><g font-size="10" fill="#065695" font-weight="bold" text-anchor="middle" dominant-baseline="text-before-edge"><text x="551" y="49">Host</text><text x="864" y="49">KVM</text><text x="1177" y="49">VirtualBox</text><text x="1490" y="49">VMware</text></g><g fill="#BABABA"/><g text-anchor="middle" font-size="10" fill="#065695"><text x="551" y="86" xlink:title="STD Dev: 0.36%;  STD Error: 7.41" fill="#005a00">3588.68</text><text x="551" y="102" xlink:title="STD Dev: 4.03%;  STD Error: 0.53" fill="#C80000">45.12</text><text x="551" y="118" xlink:title="STD Dev: 0.59%;  STD Error: 0.02" fill="#005a00">5.42</text><text x="551" y="134" xlink:title="STD Dev: 1.50%;  STD Error: 56.00" fill="#005a00">6466</text><text x="551" y="150" xlink:title="STD Dev: 1.06%;  STD Error: 0.21" fill="#005a00">34.54</text><text x="864" y="86" xlink:title="STD Dev: 3.44%;  STD Error: 41.76">2714.65</text><text x="864" y="102" xlink:title="STD Dev: 20.07%;  STD Error: 4.77">71.32</text><text x="864" y="118" xlink:title="STD Dev: 9.85%;  STD Error: 0.18">6.31</text><text x="864" y="134" xlink:title="STD Dev: 0.99%;  STD Error: 25.00">4360</text><text x="864" y="150" xlink:title="STD Dev: 1.73%;  STD Error: 0.36">36.47</text><text x="1177" y="86" xlink:title="STD Dev: 13.92%;  STD Error: 75.84">1887.19</text><text x="1177" y="102" xlink:title="STD Dev: 19.48%;  STD Error: 5.30">94.34</text><text x="1177" y="118" xlink:title="STD Dev: 4.55%;  STD Error: 0.07">6.24</text><text x="1177" y="134" xlink:title="STD Dev: 0.92%;  STD Error: 21.33" fill="#C80000">4011</text><text x="1177" y="150" xlink:title="STD Dev: 4.14%;  STD Error: 0.44" fill="#C80000">36.59</text><text x="1490" y="86" xlink:title="STD Dev: 18.09%;  STD Error: 85.45" fill="#C80000">1636.64</text><text x="1490" y="102" xlink:title="STD Dev: 12.72%;  STD Error: 23.41" fill="#005a00">637.52</text><text x="1490" y="118" xlink:title="STD Dev: 8.69%;  STD Error: 0.15" fill="#C80000">6.97</text><text x="1490" y="134" xlink:title="STD Dev: 1.27%;  STD Error: 40.33">5515</text><text x="1490" y="150" xlink:title="STD Dev: 1.60%;  STD Error: 0.33">36.15</text></g><line x1="823" y1="73" x2="823" y2="153" stroke="#949494" stroke-width="1646" stroke-dasharray="1,15"/><rect x="0" y="153" width="1646" height="16" fill="#231f20"/><a xlink:href="http://www.phoronix-test-suite.com/" xlink:show="new"><text x="1644" y="166" font-size="10" fill="#FFFFFF" text-anchor="end" xlink:show="new">PHORONIX-TEST-SUITE.COM</text></a></svg>
