<?xml version="1.0"?>
<!DOCTYPE svg PUBLIC "-//W3C//DTD SVG 1.1//EN" "http://www.w3.org/Graphics/SVG/1.1/DTD/svg11.dtd">
<!--Phoronix Test Suite v8.6.1 [ http://www.phoronix-test-suite.com/ ]-->
<svg xmlns="http://www.w3.org/2000/svg" xmlns:xlink="http://www.w3.org/1999/xlink" version="1.1" font-family="sans-serif, droid-sans, helvetica, verdana, tahoma" viewbox="0 0 600 698" width="600" height="698" preserveAspectRatio="xMinYMin meet"><rect x="0" y="0" width="600" height="698" fill="#FEFEFE" stroke="#757575" stroke-width="2"/><rect x="0" y="0" width="600" height="48" fill="#231f20"/><image xlink:href="https://openbenchmarking.org/static/images/pts-77x40-white.png" x="10" y="2" width="77" height="40"/><text x="100" y="21" font-size="17" fill="#FEFEFE" text-anchor="start">Disk</text><text x="100" y="33" font-size="9" fill="#FEFEFE" text-anchor="start" href="http://www.phoronix-test-suite.com/">Phoronix Test Suite 8.6.1</text><path fill="#FEFEFE" stroke="#949494" stroke-width="1" stroke-dasharray="10,20" d="M35,98 L565,98 A530,530 0 0,1 35,628 Z"/><text x="565" y="90" font-size="10" fill="#757575" text-anchor="middle">2.2</text><line x1="565" y1="92" x2="565" y2="98" stroke="#757575" stroke-width="1"/><text x="27" y="628" font-size="10" fill="#757575" text-anchor="end" dominant-baseline="middle">2.2</text><line x1="29" y1="628" x2="35" y2="628" stroke="#757575" stroke-width="1"/><path fill="#FEFEFE" stroke="#949494" stroke-width="1" stroke-dasharray="10,20" d="M35,98 L517,98 A482,482 0 0,1 35,580 Z"/><text x="517" y="90" font-size="10" fill="#757575" text-anchor="middle">2.0</text><line x1="517" y1="92" x2="517" y2="98" stroke="#757575" stroke-width="1"/><text x="27" y="580" font-size="10" fill="#757575" text-anchor="end" dominant-baseline="middle">2.0</text><line x1="29" y1="580" x2="35" y2="580" stroke="#757575" stroke-width="1"/><path fill="#FEFEFE" stroke="#949494" stroke-width="1" stroke-dasharray="10,20" d="M35,98 L469,98 A434,434 0 0,1 35,532 Z"/><text x="469" y="90" font-size="10" fill="#757575" text-anchor="middle">1.8</text><line x1="469" y1="92" x2="469" y2="98" stroke="#757575" stroke-width="1"/><text x="27" y="532" font-size="10" fill="#757575" text-anchor="end" dominant-baseline="middle">1.8</text><line x1="29" y1="532" x2="35" y2="532" stroke="#757575" stroke-width="1"/><path fill="#FEFEFE" stroke="#949494" stroke-width="1" stroke-dasharray="10,20" d="M35,98 L421,98 A386,386 0 0,1 35,484 Z"/><text x="421" y="90" font-size="10" fill="#757575" text-anchor="middle">1.6</text><line x1="421" y1="92" x2="421" y2="98" stroke="#757575" stroke-width="1"/><text x="27" y="484" font-size="10" fill="#757575" text-anchor="end" dominant-baseline="middle">1.6</text><line x1="29" y1="484" x2="35" y2="484" stroke="#757575" stroke-width="1"/><path fill="#FEFEFE" stroke="#949494" stroke-width="1" stroke-dasharray="10,20" d="M35,98 L372,98 A337,337 0 0,1 35,435 Z"/><text x="372" y="90" font-size="10" fill="#757575" text-anchor="middle">1.4</text><line x1="372" y1="92" x2="372" y2="98" stroke="#757575" stroke-width="1"/><text x="27" y="435" font-size="10" fill="#757575" text-anchor="end" dominant-baseline="middle">1.4</text><line x1="29" y1="435" x2="35" y2="435" stroke="#757575" stroke-width="1"/><path fill="#FEFEFE" stroke="#949494" stroke-width="1" stroke-dasharray="10,20" d="M35,98 L324,98 A289,289 0 0,1 35,387 Z"/><text x="324" y="90" font-size="10" fill="#757575" text-anchor="middle">1.2</text><line x1="324" y1="92" x2="324" y2="98" stroke="#757575" stroke-width="1"/><text x="27" y="387" font-size="10" fill="#757575" text-anchor="end" dominant-baseline="middle">1.2</text><line x1="29" y1="387" x2="35" y2="387" stroke="#757575" stroke-width="1"/><path fill="#FEFEFE" stroke="#949494" stroke-width="1" stroke-dasharray="10,20" d="M35,98 L276,98 A241,241 0 0,1 35,339 Z"/><text x="276" y="90" font-size="10" fill="#757575" text-anchor="middle">1.0</text><line x1="276" y1="92" x2="276" y2="98" stroke="#757575" stroke-width="1"/><text x="27" y="339" font-size="10" fill="#757575" text-anchor="end" dominant-baseline="middle">1.0</text><line x1="29" y1="339" x2="35" y2="339" stroke="#757575" stroke-width="1"/><line x1="35" y1="98" x2="590" y2="98" stroke="#757575" stroke-width="1"/><line x1="35" y1="98" x2="35" y2="676" stroke="#757575" stroke-width="1"/><line x1="590" y1="676" x2="590" y2="98" stroke="#757575" stroke-width="1"/><line x1="35" y1="676" x2="590" y2="676" stroke="#757575" stroke-width="1"/><polygon points="35,98 563,98 523,300" fill="#e12128" stroke="#065695" stroke-width="2" xlink:title="Unpacking The Linux Kernel - Extreme SSD - Intel Core i7-8750H - 1.286x Faster Than VMware Virtual S - 4 x Intel Core i7-8750H"/><polygon points="35,98 435,98 404,251" fill="#1b75bb" stroke="#065695" stroke-width="2" xlink:title="Unpacking The Linux Kernel - VBOX HDD - Intel Core i7-8750H - 1.117x Faster Than VMware Virtual S - 4 x Intel Core i7-8750H"/><polygon points="35,98 313,98 292,204" fill="#009345" stroke="#065695" stroke-width="2" xlink:title="Unpacking The Linux Kernel - Ultra USB 3.0 - 12 x Intel Core - 1.105x Faster Than VMware Virtual S - 4 x Intel Core i7-8750H"/><polygon points="35,98 276,98 258,190" fill="#a3365c" stroke="#065695" stroke-width="2" xlink:title="Unpacking The Linux Kernel - VMware Virtual S - 4 x Intel Core i7-8750H - 1.000x Faster Than VMware Virtual S - 4 x Intel Core i7-8750H"/><polygon points="35,98 321,217 254,317" fill="#e12128" stroke="#065695" stroke-width="2" xlink:title="PostMark - Extreme SSD - Intel Core i7-8750H - 1.612x Faster Than VBOX HDD - Intel Core i7-8750H"/><polygon points="35,98 284,201 225,288" fill="#a3365c" stroke="#065695" stroke-width="2" xlink:title="PostMark - VMware Virtual S - 4 x Intel Core i7-8750H - 1.375x Faster Than VBOX HDD - Intel Core i7-8750H"/><polygon points="35,98 281,200 223,286" fill="#009345" stroke="#065695" stroke-width="2" xlink:title="PostMark - Ultra USB 3.0 - 12 x Intel Core - 1.087x Faster Than VBOX HDD - Intel Core i7-8750H"/><polygon points="35,98 258,190 205,268" fill="#1b75bb" stroke="#065695" stroke-width="2" xlink:title="PostMark - VBOX HDD - Intel Core i7-8750H - 1.000x Faster Than VBOX HDD - Intel Core i7-8750H"/><polygon points="35,98 310,373 35,486" fill="#e12128" stroke="#065695" stroke-width="2" xlink:title="Gzip Compression - Extreme SSD - Intel Core i7-8750H - 1.059x Faster Than VBOX HDD - Intel Core i7-8750H"/><polygon points="35,98 269,332 35,429" fill="#a3365c" stroke="#065695" stroke-width="2" xlink:title="Gzip Compression - VMware Virtual S - 4 x Intel Core i7-8750H - 1.012x Faster Than VBOX HDD - Intel Core i7-8750H"/><polygon points="35,98 220,283 35,360" fill="#009345" stroke="#065695" stroke-width="2" xlink:title="Gzip Compression - Ultra USB 3.0 - 12 x Intel Core - 1.003x Faster Than VBOX HDD - Intel Core i7-8750H"/><polygon points="35,98 205,268 35,339" fill="#1b75bb" stroke="#065695" stroke-width="2" xlink:title="Gzip Compression - VBOX HDD - Intel Core i7-8750H - 1.000x Faster Than VBOX HDD - Intel Core i7-8750H"/><path fill="#FEFEFE" stroke="#757575" stroke-width="1" d="M35,98 L276,98 A241,241 0 0,1 35,339 Z"/><text x="215.34575890842" y="218.50318354195" font-size="11" fill="#C80000" text-anchor="end" dominant-baseline="middle">Disk</text><text x="586" y="667" font-size="9" fill="#e12128" text-anchor="end" dominant-baseline="middle">250GB Extreme SSD + 512GB TOSHIBA KSG60ZMV + 123GB Ultra USB 3.0</text><text x="586" y="658" font-size="9" fill="#009345" text-anchor="end" dominant-baseline="middle">123GB Ultra USB 3.0</text><text x="586" y="649" font-size="9" fill="#1b75bb" text-anchor="end" dominant-baseline="middle">32GB VBOX HDD + 123GB Ultra USB 3.0</text><text x="586" y="640" font-size="9" fill="#a3365c" text-anchor="end" dominant-baseline="middle">21GB VMware Virtual S + 123GB Ultra USB 3.0</text></svg>
