<?xml version="1.0"?>
<!DOCTYPE svg PUBLIC "-//W3C//DTD SVG 1.1//EN" "http://www.w3.org/Graphics/SVG/1.1/DTD/svg11.dtd">
<!--Phoronix Test Suite v8.6.1 [ http://www.phoronix-test-suite.com/ ]-->
<svg xmlns="http://www.w3.org/2000/svg" xmlns:xlink="http://www.w3.org/1999/xlink" version="1.1" font-family="sans-serif, droid-sans, helvetica, verdana, tahoma" viewbox="0 0 1000 310" width="1000" height="310" preserveAspectRatio="xMinYMin meet"><rect x="0" y="0" width="1000" height="310" fill="#FEFEFE" stroke="#757575" stroke-width="2"/><g stroke="#757575" stroke-width="1"/><g font-size="9" text-anchor="start" font-weight="bold"/><rect x="30" y="90.666666666667" width="960" height="120" fill="#BABABA" stroke="#757575" stroke-width="1"/><a xlink:href="http://www.phoronix-test-suite.com/" xlink:show="new"><text x="988" y="102.66666666667" font-size="10" fill="#065695" text-anchor="end" xlink:show="new">PHORONIX-TEST-SUITE.COM</text></a><g stroke="#757575" stroke-width="1" stroke-dasharray="5,5"><line x1="30" y1="192" x2="990" y2="192"/><line x1="30" y1="172" x2="990" y2="172"/><line x1="30" y1="152" x2="990" y2="152"/><line x1="30" y1="132" x2="990" y2="132"/><line x1="30" y1="112" x2="990" y2="112"/></g><g stroke="#757575" stroke-width="1"><line x1="26" y1="192" x2="34" y2="192"/><line x1="26" y1="172" x2="34" y2="172"/><line x1="26" y1="152" x2="34" y2="152"/><line x1="26" y1="132" x2="34" y2="132"/><line x1="26" y1="112" x2="34" y2="112"/></g><g stroke="#949494" stroke-width="1" stroke-dasharray="5,5"><line x1="41" y1="192" x2="990" y2="192"/><line x1="41" y1="172" x2="990" y2="172"/><line x1="41" y1="152" x2="990" y2="152"/><line x1="41" y1="132" x2="990" y2="132"/><line x1="41" y1="112" x2="990" y2="112"/></g><g font-size="10" fill="#065695" text-anchor="end"/><text x="83" y="214" font-size="6.5" fill="#231f20" text-anchor="middle" dominant-baseline="text-before-edge">AIO-Stress</text><rect x="40.6" y="92" width="21" height="119" fill="#e12128" stroke="#949494" stroke-width="1"/><rect x="61.6" y="121" width="21" height="90" fill="#009345" stroke="#949494" stroke-width="1"/><rect x="82.6" y="149" width="21" height="62" fill="#1b75bb" stroke="#949494" stroke-width="1"/><rect x="103.6" y="157" width="21" height="54" fill="#a3365c" stroke="#949494" stroke-width="1"/><text x="189" y="214" font-size="6.5" fill="#231f20" text-anchor="middle" dominant-baseline="text-before-edge">FS-Mark</text><rect x="146.6" y="203" width="21" height="8" fill="#e12128" stroke="#949494" stroke-width="1"/><rect x="167.6" y="199" width="21" height="12" fill="#009345" stroke="#949494" stroke-width="1"/><rect x="188.6" y="194" width="21" height="17" fill="#1b75bb" stroke="#949494" stroke-width="1"/><rect x="209.6" y="92" width="21" height="119" fill="#a3365c" stroke="#949494" stroke-width="1"/><text x="295" y="214" font-size="6.5" fill="#231f20" text-anchor="middle" dominant-baseline="text-before-edge">Unpacking The Linux Kernel</text><rect x="252.6" y="92" width="21" height="119" fill="#e12128" stroke="#949494" stroke-width="1"/><rect x="273.6" y="109" width="21" height="102" fill="#009345" stroke="#949494" stroke-width="1"/><rect x="294.6" y="107" width="21" height="104" fill="#1b75bb" stroke="#949494" stroke-width="1"/><rect x="315.6" y="118" width="21" height="93" fill="#a3365c" stroke="#949494" stroke-width="1"/><text x="401" y="214" font-size="6.5" fill="#231f20" text-anchor="middle" dominant-baseline="text-before-edge">PostMark</text><rect x="358.6" y="92" width="21" height="119" fill="#e12128" stroke="#949494" stroke-width="1"/><rect x="379.6" y="131" width="21" height="80" fill="#009345" stroke="#949494" stroke-width="1"/><rect x="400.6" y="137" width="21" height="74" fill="#1b75bb" stroke="#949494" stroke-width="1"/><rect x="421.6" y="109" width="21" height="102" fill="#a3365c" stroke="#949494" stroke-width="1"/><text x="507" y="214" font-size="6.5" fill="#231f20" text-anchor="middle" dominant-baseline="text-before-edge">Gzip Compression</text><rect x="464.6" y="92" width="21" height="119" fill="#e12128" stroke="#949494" stroke-width="1"/><rect x="485.6" y="98" width="21" height="113" fill="#009345" stroke="#949494" stroke-width="1"/><rect x="506.6" y="98" width="21" height="113" fill="#1b75bb" stroke="#949494" stroke-width="1"/><rect x="527.6" y="97" width="21" height="114" fill="#a3365c" stroke="#949494" stroke-width="1"/><text x="495" y="19" font-size="17" fill="#231f20" text-anchor="middle" xlink:show="new">Disk</text><a xlink:href="https://www.phoronix-test-suite.com/" xlink:show="new"><text x="990" y="87.666666666667" font-size="7" fill="#949494" text-anchor="end" xlink:show="new">Phoronix Test Suite 8.6.1</text></a></svg>
