<?xml version="1.0"?>
<!DOCTYPE svg PUBLIC "-//W3C//DTD SVG 1.1//EN" "http://www.w3.org/Graphics/SVG/1.1/DTD/svg11.dtd">
<!--Phoronix Test Suite v8.6.1 [ http://www.phoronix-test-suite.com/ ]-->
<svg xmlns="http://www.w3.org/2000/svg" xmlns:xlink="http://www.w3.org/1999/xlink" version="1.1" font-family="sans-serif, droid-sans, helvetica, verdana, tahoma" viewbox="0 0 600 320" width="600" height="320" preserveAspectRatio="xMinYMin meet"><rect x="0" y="0" width="600" height="320" fill="#FEFEFE" stroke="#757575" stroke-width="2"/><g stroke="#757575" stroke-width="1"><line x1="127" y1="62" x2="127" y2="247"/><line x1="127" y1="246" x2="586" y2="246"/></g><a xlink:href="http://www.phoronix-test-suite.com/" xlink:show="new"><text x="585" y="57" font-size="8" fill="#065695" text-anchor="end" xlink:show="new">PHORONIX-TEST-SUITE.COM</text></a><polygon points="136,54 127,58.5 127,49.5" fill="#065695" stroke="#949494" stroke-width="1"/><text x="139" y="57" font-size="8" fill="#065695" text-anchor="start">Operations Per Second, More Is Better</text><rect x="0" y="0" width="600" height="46" fill="#231f20"/><a xlink:href="https://openbenchmarking.org/test/pts/mcperf-1.1.1" xlink:show="new"><text x="6" y="19" font-size="17" fill="#FEFEFE" text-anchor="start" xlink:show="new" font-weight="bold">Memcached mcperf v1.5.10</text></a><path d="m74 22v9m-5-16v16m-5-28v28m-23-2h12.5c2.485281 0 4.5-2.014719 4.5-4.5s-2.014719-4.5-4.5-4.5h-8c-2.485281 0-4.5-2.014719-4.5-4.5s2.014719-4.5 4.5-4.5h12.5m-21 5h-11m11 13h-2c-4.970563 0-9-4.029437-9-9v-20m-24 40v-20c0-4.970563 4.0294373-9 9-9 4.970563 0 9 4.029437 9 9s-4.029437 9-9 9h-9" stroke="#ffffff" stroke-width="4" fill="none" transform="translate(508,4)"/><line x1="127" y1="108" x2="127" y2="202" stroke="#757575" stroke-width="11" stroke-dasharray="1,45"/><g font-size="10" fill="#231f20" font-weight="bold"><text x="122" y="83" text-anchor="end">2019-04-23 20:02</text><text x="122" y="129" text-anchor="end">2019-04-22 22:19</text><text x="122" y="175" text-anchor="end">2019-04-23 01:23</text><text x="122" y="221" text-anchor="end">2019-04-22 20:45</text></g><g font-size="10" fill="#065695" text-anchor="middle"><text x="205" y="261">14000</text><text x="281" y="261">28000</text><text x="357" y="261">42000</text><text x="433" y="261">56000</text><text x="509" y="261">70000</text></g><g stroke="#BABABA" stroke-width="1"><line x1="205" y1="62" x2="205" y2="241" stroke-dasharray="5,5"/><line x1="205" y1="242" x2="205" y2="251"/><line x1="281" y1="62" x2="281" y2="241" stroke-dasharray="5,5"/><line x1="281" y1="242" x2="281" y2="251"/><line x1="357" y1="62" x2="357" y2="241" stroke-dasharray="5,5"/><line x1="357" y1="242" x2="357" y2="251"/><line x1="433" y1="62" x2="433" y2="241" stroke-dasharray="5,5"/><line x1="433" y1="242" x2="433" y2="251"/><line x1="509" y1="62" x2="509" y2="241" stroke-dasharray="5,5"/><line x1="509" y1="242" x2="509" y2="251"/></g><g stroke="#949494" stroke-width="1"><rect x="127" y="68" height="34" width="345" fill="#065695" xlink:title="2019-04-23 20:02: 63345"/><rect x="127" y="114" height="34" width="244" fill="#065695" xlink:title="2019-04-22 22:19: 44820"/><rect x="127" y="160" height="34" width="100" fill="#065695" xlink:title="2019-04-23 01:23: 18274"/><rect x="127" y="206" height="34" width="91" fill="#065695" xlink:title="2019-04-22 20:45: 16639"/></g><g font-size="8" fill="#065695" text-anchor="end"><text y="99" x="122">SE +/- 538.30</text><text y="145" x="122">SE +/- 168.33</text><text y="191" x="122">SE +/- 188.30</text><text y="237" x="122">SE +/- 22.62</text></g><g font-size="10" fill="#FFFFFF" font-weight="bold" text-anchor="end"><text x="467" y="91">63345</text><text x="366" y="137">44820</text><text x="222" y="183">18274</text><text x="213" y="229">16639</text></g><rect x="0" y="268" width="600" height="52" fill="#231f20"/><a xlink:href="https://www.phoronix-test-suite.com/" xlink:show="new"><text x="585" y="280" font-size="9" fill="#FEFEFE" text-anchor="end" xlink:show="new">Phoronix Test Suite 8.6.1</text></a><text x="5" y="294" font-size="8" fill="#FEFEFE" text-anchor="start" xlink:title="-O2 -lm -rdynamic" width="595">1. (CC) gcc options: -O2 -lm -rdynamic</text></svg>
