<?xml version="1.0"?>
<!DOCTYPE svg PUBLIC "-//W3C//DTD SVG 1.1//EN" "http://www.w3.org/Graphics/SVG/1.1/DTD/svg11.dtd">
<!--Phoronix Test Suite v8.6.1 [ http://www.phoronix-test-suite.com/ ]-->
<svg xmlns="http://www.w3.org/2000/svg" xmlns:xlink="http://www.w3.org/1999/xlink" version="1.1" font-family="sans-serif, droid-sans, helvetica, verdana, tahoma" viewbox="0 0 600 322" width="600" height="322" preserveAspectRatio="xMinYMin meet"><rect x="0" y="0" width="600" height="322" fill="#FEFEFE" stroke="#757575" stroke-width="2"/><g stroke="#757575" stroke-width="1"><line x1="127" y1="64" x2="127" y2="249"/><line x1="127" y1="248" x2="586" y2="248"/></g><a xlink:href="http://www.phoronix-test-suite.com/" xlink:show="new"><text x="585" y="59" font-size="8" fill="#065695" text-anchor="end" xlink:show="new">PHORONIX-TEST-SUITE.COM</text></a><polygon points="127,56 136,60.5 136,51.5" fill="#065695" stroke="#949494" stroke-width="1"/><text x="139" y="59" font-size="8" fill="#065695" text-anchor="start">Seconds, Less Is Better</text><rect x="0" y="0" width="600" height="48" fill="#231f20"/><a xlink:href="https://openbenchmarking.org/test/pts/git-1.0.2" xlink:show="new"><text x="6" y="19" font-size="17" fill="#FEFEFE" text-anchor="start" xlink:show="new" font-weight="bold">Git</text></a><text x="6" y="36" font-size="11" font-weight="bold" fill="#FEFEFE" text-anchor="start">Time To Complete Common Git Commands</text><path d="m74 22v9m-5-16v16m-5-28v28m-23-2h12.5c2.485281 0 4.5-2.014719 4.5-4.5s-2.014719-4.5-4.5-4.5h-8c-2.485281 0-4.5-2.014719-4.5-4.5s2.014719-4.5 4.5-4.5h12.5m-21 5h-11m11 13h-2c-4.970563 0-9-4.029437-9-9v-20m-24 40v-20c0-4.970563 4.0294373-9 9-9 4.970563 0 9 4.029437 9 9s-4.029437 9-9 9h-9" stroke="#ffffff" stroke-width="4" fill="none" transform="translate(508,4)"/><line x1="127" y1="110" x2="127" y2="248" stroke="#757575" stroke-width="11" stroke-dasharray="1,45"/><g font-size="10" fill="#231f20" font-weight="bold"><text x="122" y="85" text-anchor="end">2019-04-23 20:02</text><text x="122" y="131" text-anchor="end">2019-04-22 22:19</text><text x="122" y="177" text-anchor="end">2019-04-23 01:23</text><text x="122" y="223" text-anchor="end">2019-04-22 20:45</text></g><g font-size="10" fill="#065695" text-anchor="middle"><text x="205" y="263">2</text><text x="281" y="263">4</text><text x="357" y="263">6</text><text x="433" y="263">8</text><text x="509" y="263">10</text></g><g stroke="#BABABA" stroke-width="1"><line x1="205" y1="64" x2="205" y2="243" stroke-dasharray="5,5"/><line x1="205" y1="244" x2="205" y2="253"/><line x1="281" y1="64" x2="281" y2="243" stroke-dasharray="5,5"/><line x1="281" y1="244" x2="281" y2="253"/><line x1="357" y1="64" x2="357" y2="243" stroke-dasharray="5,5"/><line x1="357" y1="244" x2="357" y2="253"/><line x1="433" y1="64" x2="433" y2="243" stroke-dasharray="5,5"/><line x1="433" y1="244" x2="433" y2="253"/><line x1="509" y1="64" x2="509" y2="243" stroke-dasharray="5,5"/><line x1="509" y1="244" x2="509" y2="253"/></g><g stroke="#949494" stroke-width="1"><rect x="127" y="70" height="34" width="218" fill="#065695" xlink:title="2019-04-23 20:02: 5.72"/><rect x="127" y="116" height="34" width="226" fill="#065695" xlink:title="2019-04-22 22:19: 5.91"/><rect x="127" y="162" height="34" width="229" fill="#065695" xlink:title="2019-04-23 01:23: 6.00"/><rect x="127" y="208" height="34" width="231" fill="#065695" xlink:title="2019-04-22 20:45: 6.06"/></g><g font-size="8" fill="#065695" text-anchor="end"><text y="101" x="122">SE +/- 0.00</text><text y="147" x="122">SE +/- 0.02</text><text y="193" x="122">SE +/- 0.08</text><text y="239" x="122">SE +/- 0.03</text></g><g font-size="10" fill="#FFFFFF" font-weight="bold" text-anchor="end"><text x="340" y="93">5.72</text><text x="348" y="139">5.91</text><text x="351" y="185">6.00</text><text x="353" y="231">6.06</text></g><rect x="0" y="270" width="600" height="52" fill="#231f20"/><a xlink:href="https://www.phoronix-test-suite.com/" xlink:show="new"><text x="585" y="282" font-size="9" fill="#FEFEFE" text-anchor="end" xlink:show="new">Phoronix Test Suite 8.6.1</text></a><text x="5" y="296" font-size="8" fill="#FEFEFE" text-anchor="start" width="595">1. git version 2.19.1</text></svg>
