<?xml version="1.0"?>
<!DOCTYPE svg PUBLIC "-//W3C//DTD SVG 1.1//EN" "http://www.w3.org/Graphics/SVG/1.1/DTD/svg11.dtd">
<!--Phoronix Test Suite v8.6.1 [ http://www.phoronix-test-suite.com/ ]-->
<svg xmlns="http://www.w3.org/2000/svg" xmlns:xlink="http://www.w3.org/1999/xlink" version="1.1" font-family="sans-serif, droid-sans, helvetica, verdana, tahoma" viewbox="0 0 811 137" width="811" height="137" preserveAspectRatio="xMinYMin meet"><rect x="0" y="0" width="811" height="137" fill="#FEFEFE" stroke="#757575" stroke-width="2"/><rect x="1" y="1" width="810" height="136" fill="#FEFEFE" stroke="#757575" stroke-width="1"/><path d="m74 22v9m-5-16v16m-5-28v28m-23-2h12.5c2.485281 0 4.5-2.014719 4.5-4.5s-2.014719-4.5-4.5-4.5h-8c-2.485281 0-4.5-2.014719-4.5-4.5s2.014719-4.5 4.5-4.5h12.5m-21 5h-11m11 13h-2c-4.970563 0-9-4.029437-9-9v-20m-24 40v-20c0-4.970563 4.0294373-9 9-9 4.970563 0 9 4.029437 9 9s-4.029437 9-9 9h-9" stroke="#000000" stroke-width="4" fill="none" transform="translate(114,28)"/><line x1="307" y1="73" x2="811" y2="73" stroke="#BABABA" stroke-width="96" stroke-dasharray="126,126"/><line x1="406" y1="73" x2="406" y2="121" stroke="#949494" stroke-width="811" stroke-dasharray="16,16"/><line x1="307" y1="73" x2="811" y2="73" stroke="#757575" stroke-width="96" stroke-dasharray="1,125"/><rect x="1" y="1" width="809" height="25" fill="#231f20"/><text x="5" y="19" font-size="17" fill="#FEFEFE" text-anchor="start">System</text><line x1="1" y1="25" x2="810" y2="25" stroke="#757575" stroke-width="1"/><g font-size="10" font-weight="bold" fill="#065695" text-anchor="end"><a xlink:href="https://openbenchmarking.org/test/pts/mcperf-1.1.1" xlink:show="new"><text x="305" y="85">mcperf: </text></a><a xlink:href="https://openbenchmarking.org/test/pts/pybench-1.1.3" xlink:show="new"><text x="305" y="101">pybench: Total For Average Test Times</text></a><a xlink:href="https://openbenchmarking.org/test/pts/git-1.0.2" xlink:show="new"><text x="305" y="117">git: Time To Complete Common Git Commands</text></a></g><g font-size="10" fill="#065695" font-weight="bold" text-anchor="middle" dominant-baseline="text-before-edge"><text x="370" y="49">Host</text><text x="496" y="49">KVM</text><text x="622" y="49">VirtualBox</text><text x="748" y="49">VMWare</text></g><g fill="#BABABA"/><g text-anchor="middle" font-size="10" fill="#065695"><text x="370" y="86" xlink:title="STD Dev: 1.47%;  STD Error: 538.30" fill="#005a00">63344.70</text><text x="370" y="102" fill="#005a00">1407</text><text x="370" y="118" xlink:title="STD Dev: 0.10%" fill="#005a00">5.72</text><text x="496" y="86" xlink:title="STD Dev: 0.65%;  STD Error: 168.33">44819.93</text><text x="496" y="102">1421</text><text x="496" y="118" xlink:title="STD Dev: 0.63%;  STD Error: 0.02">5.91</text><text x="622" y="86" xlink:title="STD Dev: 1.78%;  STD Error: 188.30">18273.70</text><text x="622" y="102" xlink:title="STD Dev: 0.32%;  STD Error: 2.67" fill="#C80000">1430</text><text x="622" y="118" xlink:title="STD Dev: 2.23%;  STD Error: 0.08">6.00</text><text x="748" y="86" xlink:title="STD Dev: 0.24%;  STD Error: 22.62" fill="#C80000">16639.17</text><text x="748" y="102">1427</text><text x="748" y="118" xlink:title="STD Dev: 0.78%;  STD Error: 0.03" fill="#C80000">6.06</text></g><line x1="406" y1="73" x2="406" y2="121" stroke="#949494" stroke-width="811" stroke-dasharray="1,15"/><rect x="0" y="121" width="811" height="16" fill="#231f20"/><a xlink:href="http://www.phoronix-test-suite.com/" xlink:show="new"><text x="809" y="134" font-size="10" fill="#FFFFFF" text-anchor="end" xlink:show="new">PHORONIX-TEST-SUITE.COM</text></a></svg>
