<?xml version="1.0"?>
<!DOCTYPE svg PUBLIC "-//W3C//DTD SVG 1.1//EN" "http://www.w3.org/Graphics/SVG/1.1/DTD/svg11.dtd">
<!--Phoronix Test Suite v8.6.1 [ http://www.phoronix-test-suite.com/ ]-->
<svg xmlns="http://www.w3.org/2000/svg" xmlns:xlink="http://www.w3.org/1999/xlink" version="1.1" font-family="sans-serif, droid-sans, helvetica, verdana, tahoma" viewbox="0 0 646 168" width="646" height="168" preserveAspectRatio="xMinYMin meet"><rect x="0" y="0" width="646" height="168" fill="#FEFEFE" stroke="#757575" stroke-width="2"/><rect x="1" y="1" width="645" height="167" fill="#FEFEFE" stroke="#757575" stroke-width="1"/><path d="m74 22v9m-5-16v16m-5-28v28m-23-2h12.5c2.485281 0 4.5-2.014719 4.5-4.5s-2.014719-4.5-4.5-4.5h-8c-2.485281 0-4.5-2.014719-4.5-4.5s2.014719-4.5 4.5-4.5h12.5m-21 5h-11m11 13h-2c-4.970563 0-9-4.029437-9-9v-20m-24 40v-20c0-4.970563 4.0294373-9 9-9 4.970563 0 9 4.029437 9 9s-4.029437 9-9 9h-9" stroke="#000000" stroke-width="4" fill="none" transform="translate(31,43)"/><line x1="142" y1="96" x2="646" y2="96" stroke="#BABABA" stroke-width="112" stroke-dasharray="126,126"/><line x1="323" y1="88" x2="323" y2="152" stroke="#949494" stroke-width="646" stroke-dasharray="16,16"/><line x1="142" y1="96" x2="646" y2="96" stroke="#757575" stroke-width="112" stroke-dasharray="1,125"/><rect x="1" y="1" width="644" height="40" fill="#231f20"/><text x="5" y="19" font-size="17" fill="#FEFEFE" text-anchor="start">Tinymembench</text><text x="5" y="33" font-size="11" fill="#FEFEFE" text-anchor="start">Standard Memcpy</text><line x1="1" y1="40" x2="645" y2="40" stroke="#757575" stroke-width="1"/><g font-size="10" font-weight="bold" fill="#065695" text-anchor="end"><text x="140" y="100">Results</text><text x="140" y="116">Difference</text><text x="140" y="132">Standard Error</text><text x="140" y="148">Standard Deviation</text></g><g font-size="10" fill="#065695" font-weight="bold" text-anchor="middle" dominant-baseline="text-before-edge"><text x="205" y="64">2019-04-23 19:27</text><text x="331" y="64">2019-04-22 21:32</text><text x="457" y="64">2019-04-23 00:40</text><text x="583" y="64">2019-04-22 20:02</text></g><g fill="#BABABA"/><g text-anchor="middle" font-size="10" fill="#065695"><text x="205" y="101" xlink:title="STD Dev: 0.21%;  STD Error: 17.37" fill="#005a00">14455.23</text><text x="205" y="117">1.16x</text><text x="205" y="133">17.37</text><text x="205" y="149">0.21%</text><text x="331" y="101" xlink:title="STD Dev: 0.98%;  STD Error: 79.15">13950.97</text><text x="331" y="117">1.12x</text><text x="331" y="133">79.15</text><text x="331" y="149">0.98%</text><text x="457" y="101" xlink:title="STD Dev: 0.77%;  STD Error: 56.64">12780.87</text><text x="457" y="117">1.02x</text><text x="457" y="133">56.64</text><text x="457" y="149">0.77%</text><text x="583" y="101" xlink:title="STD Dev: 0.65%;  STD Error: 46.86" fill="#C80000">12480.20</text><text x="583" y="117">1.00x</text><text x="583" y="133">46.86</text><text x="583" y="149">0.65%</text></g><line x1="323" y1="88" x2="323" y2="152" stroke="#949494" stroke-width="646" stroke-dasharray="1,15"/><rect x="0" y="152" width="646" height="16" fill="#231f20"/><a xlink:href="http://www.phoronix-test-suite.com/" xlink:show="new"><text x="644" y="165" font-size="10" fill="#FFFFFF" text-anchor="end" xlink:show="new">PHORONIX-TEST-SUITE.COM</text></a></svg>
