<?xml version="1.0"?>
<!DOCTYPE svg PUBLIC "-//W3C//DTD SVG 1.1//EN" "http://www.w3.org/Graphics/SVG/1.1/DTD/svg11.dtd">
<!--Phoronix Test Suite v8.6.1 [ http://www.phoronix-test-suite.com/ ]-->
<svg xmlns="http://www.w3.org/2000/svg" xmlns:xlink="http://www.w3.org/1999/xlink" version="1.1" font-family="sans-serif, droid-sans, helvetica, verdana, tahoma" viewbox="0 0 726 201" width="726" height="201" preserveAspectRatio="xMinYMin meet"><rect x="0" y="0" width="726" height="201" fill="#FEFEFE" stroke="#757575" stroke-width="2"/><rect x="1" y="1" width="725" height="200" fill="#FEFEFE" stroke="#757575" stroke-width="1"/><path d="m74 22v9m-5-16v16m-5-28v28m-23-2h12.5c2.485281 0 4.5-2.014719 4.5-4.5s-2.014719-4.5-4.5-4.5h-8c-2.485281 0-4.5-2.014719-4.5-4.5s2.014719-4.5 4.5-4.5h12.5m-21 5h-11m11 13h-2c-4.970563 0-9-4.029437-9-9v-20m-24 40v-20c0-4.970563 4.0294373-9 9-9 4.970563 0 9 4.029437 9 9s-4.029437 9-9 9h-9" stroke="#000000" stroke-width="4" fill="none" transform="translate(71,28)"/><line x1="222" y1="105" x2="726" y2="105" stroke="#BABABA" stroke-width="160" stroke-dasharray="126,126"/><line x1="363" y1="73" x2="363" y2="185" stroke="#949494" stroke-width="726" stroke-dasharray="16,16"/><line x1="222" y1="105" x2="726" y2="105" stroke="#757575" stroke-width="160" stroke-dasharray="1,125"/><rect x="1" y="1" width="724" height="25" fill="#231f20"/><text x="5" y="19" font-size="17" fill="#FEFEFE" text-anchor="start">Memory</text><line x1="1" y1="25" x2="725" y2="25" stroke="#757575" stroke-width="1"/><g font-size="10" font-weight="bold" fill="#065695" text-anchor="end"><a xlink:href="https://openbenchmarking.org/test/pts/ramspeed-1.4.2" xlink:show="new"><text x="220" y="85">ramspeed: Integer Add</text></a><a xlink:href="https://openbenchmarking.org/test/pts/ramspeed-1.4.2" xlink:show="new"><text x="220" y="101">ramspeed: Integer Copy</text></a><a xlink:href="https://openbenchmarking.org/test/pts/ramspeed-1.4.2" xlink:show="new"><text x="220" y="117">ramspeed: Integer Scale</text></a><a xlink:href="https://openbenchmarking.org/test/pts/ramspeed-1.4.2" xlink:show="new"><text x="220" y="133">ramspeed: Floating-Point Add</text></a><a xlink:href="https://openbenchmarking.org/test/pts/tinymembench-1.0.2" xlink:show="new"><text x="220" y="149">tinymembench: Standard Memcpy</text></a><a xlink:href="https://openbenchmarking.org/test/pts/tinymembench-1.0.2" xlink:show="new"><text x="220" y="165">tinymembench: Standard Memset</text></a><a xlink:href="https://openbenchmarking.org/test/pts/t-test1-1.0.1" xlink:show="new"><text x="220" y="181">t-test1: Total Time</text></a></g><g font-size="10" fill="#065695" font-weight="bold" text-anchor="middle" dominant-baseline="text-before-edge"><text x="285" y="49">Host</text><text x="411" y="49">KVM</text><text x="537" y="49">VirtualBox</text><text x="663" y="49">VMWare</text></g><g fill="#BABABA"/><g text-anchor="middle" font-size="10" fill="#065695"><text x="285" y="86" fill="#005a00">21669.50</text><text x="285" y="102" fill="#005a00">19180.61</text><text x="285" y="118" fill="#005a00">19131.09</text><text x="285" y="134" fill="#005a00">21702.49</text><text x="285" y="150" xlink:title="STD Dev: 0.21%;  STD Error: 17.37" fill="#005a00">14455.23</text><text x="285" y="166" xlink:title="STD Dev: 0.46%;  STD Error: 81.63" fill="#005a00">30565.17</text><text x="285" y="182" xlink:title="STD Dev: 0.02%" fill="#005a00">6.18</text><text x="411" y="86" fill="#C80000">20457.11</text><text x="411" y="102">18970.53</text><text x="411" y="118">18994.40</text><text x="411" y="134">21243.84</text><text x="411" y="150" xlink:title="STD Dev: 0.98%;  STD Error: 79.15">13950.97</text><text x="411" y="166" xlink:title="STD Dev: 1.14%;  STD Error: 181.17">27625.73</text><text x="411" y="182" xlink:title="STD Dev: 2.66%;  STD Error: 0.11">7.30</text><text x="537" y="86">20659.24</text><text x="537" y="102" fill="#C80000">18591.89</text><text x="537" y="118" fill="#C80000">18413.17</text><text x="537" y="134" fill="#C80000">20600.53</text><text x="537" y="150" xlink:title="STD Dev: 0.77%;  STD Error: 56.64">12780.87</text><text x="537" y="166" xlink:title="STD Dev: 0.68%;  STD Error: 57.67" fill="#C80000">14619.60</text><text x="537" y="182" xlink:title="STD Dev: 0.23%;  STD Error: 0.01">7.76</text><text x="663" y="86">20883.01</text><text x="663" y="102">18688.45</text><text x="663" y="118">18503.87</text><text x="663" y="134">20832.20</text><text x="663" y="150" xlink:title="STD Dev: 0.65%;  STD Error: 46.86" fill="#C80000">12480.20</text><text x="663" y="166" xlink:title="STD Dev: 0.45%;  STD Error: 49.93">19046.87</text><text x="663" y="182" xlink:title="STD Dev: 0.35%;  STD Error: 0.02" fill="#C80000">8.60</text></g><line x1="363" y1="73" x2="363" y2="185" stroke="#949494" stroke-width="726" stroke-dasharray="1,15"/><rect x="0" y="185" width="726" height="16" fill="#231f20"/><a xlink:href="http://www.phoronix-test-suite.com/" xlink:show="new"><text x="724" y="198" font-size="10" fill="#FFFFFF" text-anchor="end" xlink:show="new">PHORONIX-TEST-SUITE.COM</text></a></svg>
