<?xml version="1.0"?>
<!DOCTYPE svg PUBLIC "-//W3C//DTD SVG 1.1//EN" "http://www.w3.org/Graphics/SVG/1.1/DTD/svg11.dtd">
<!--Phoronix Test Suite v8.6.1 [ http://www.phoronix-test-suite.com/ ]-->
<svg xmlns="http://www.w3.org/2000/svg" xmlns:xlink="http://www.w3.org/1999/xlink" version="1.1" font-family="sans-serif, droid-sans, helvetica, verdana, tahoma" viewbox="0 0 600 698" width="600" height="698" preserveAspectRatio="xMinYMin meet"><rect x="0" y="0" width="600" height="698" fill="#FEFEFE" stroke="#757575" stroke-width="2"/><rect x="0" y="0" width="600" height="48" fill="#231f20"/><image xlink:href="https://openbenchmarking.org/static/images/pts-77x40-white.png" x="10" y="2" width="77" height="40"/><text x="100" y="21" font-size="17" fill="#FEFEFE" text-anchor="start">Memory</text><text x="100" y="33" font-size="9" fill="#FEFEFE" text-anchor="start" href="http://www.phoronix-test-suite.com/">Phoronix Test Suite 8.6.1</text><path fill="#FEFEFE" stroke="#949494" stroke-width="1" stroke-dasharray="10,20" d="M35,98 L564,98 A529,529 0 0,1 35,627 Z"/><text x="564" y="90" font-size="10" fill="#757575" text-anchor="middle">2.1</text><line x1="564" y1="92" x2="564" y2="98" stroke="#757575" stroke-width="1"/><text x="27" y="627" font-size="10" fill="#757575" text-anchor="end" dominant-baseline="middle">2.1</text><line x1="29" y1="627" x2="35" y2="627" stroke="#757575" stroke-width="1"/><path fill="#FEFEFE" stroke="#949494" stroke-width="1" stroke-dasharray="10,20" d="M35,98 L514,98 A479,479 0 0,1 35,577 Z"/><text x="514" y="90" font-size="10" fill="#757575" text-anchor="middle">1.9</text><line x1="514" y1="92" x2="514" y2="98" stroke="#757575" stroke-width="1"/><text x="27" y="577" font-size="10" fill="#757575" text-anchor="end" dominant-baseline="middle">1.9</text><line x1="29" y1="577" x2="35" y2="577" stroke="#757575" stroke-width="1"/><path fill="#FEFEFE" stroke="#949494" stroke-width="1" stroke-dasharray="10,20" d="M35,98 L463,98 A428,428 0 0,1 35,526 Z"/><text x="463" y="90" font-size="10" fill="#757575" text-anchor="middle">1.7</text><line x1="463" y1="92" x2="463" y2="98" stroke="#757575" stroke-width="1"/><text x="27" y="526" font-size="10" fill="#757575" text-anchor="end" dominant-baseline="middle">1.7</text><line x1="29" y1="526" x2="35" y2="526" stroke="#757575" stroke-width="1"/><path fill="#FEFEFE" stroke="#949494" stroke-width="1" stroke-dasharray="10,20" d="M35,98 L413,98 A378,378 0 0,1 35,476 Z"/><text x="413" y="90" font-size="10" fill="#757575" text-anchor="middle">1.5</text><line x1="413" y1="92" x2="413" y2="98" stroke="#757575" stroke-width="1"/><text x="27" y="476" font-size="10" fill="#757575" text-anchor="end" dominant-baseline="middle">1.5</text><line x1="29" y1="476" x2="35" y2="476" stroke="#757575" stroke-width="1"/><path fill="#FEFEFE" stroke="#949494" stroke-width="1" stroke-dasharray="10,20" d="M35,98 L388,98 A353,353 0 0,1 35,451 Z"/><text x="388" y="90" font-size="10" fill="#757575" text-anchor="middle">1.4</text><line x1="388" y1="92" x2="388" y2="98" stroke="#757575" stroke-width="1"/><text x="27" y="451" font-size="10" fill="#757575" text-anchor="end" dominant-baseline="middle">1.4</text><line x1="29" y1="451" x2="35" y2="451" stroke="#757575" stroke-width="1"/><path fill="#FEFEFE" stroke="#949494" stroke-width="1" stroke-dasharray="10,20" d="M35,98 L337,98 A302,302 0 0,1 35,400 Z"/><text x="337" y="90" font-size="10" fill="#757575" text-anchor="middle">1.2</text><line x1="337" y1="92" x2="337" y2="98" stroke="#757575" stroke-width="1"/><text x="27" y="400" font-size="10" fill="#757575" text-anchor="end" dominant-baseline="middle">1.2</text><line x1="29" y1="400" x2="35" y2="400" stroke="#757575" stroke-width="1"/><path fill="#FEFEFE" stroke="#949494" stroke-width="1" stroke-dasharray="10,20" d="M35,98 L287,98 A252,252 0 0,1 35,350 Z"/><text x="287" y="90" font-size="10" fill="#757575" text-anchor="middle">1.0</text><line x1="287" y1="92" x2="287" y2="98" stroke="#757575" stroke-width="1"/><text x="27" y="350" font-size="10" fill="#757575" text-anchor="end" dominant-baseline="middle">1.0</text><line x1="29" y1="350" x2="35" y2="350" stroke="#757575" stroke-width="1"/><line x1="35" y1="98" x2="590" y2="98" stroke="#757575" stroke-width="1"/><line x1="35" y1="98" x2="35" y2="676" stroke="#757575" stroke-width="1"/><line x1="590" y1="676" x2="590" y2="98" stroke="#757575" stroke-width="1"/><line x1="35" y1="676" x2="590" y2="676" stroke="#757575" stroke-width="1"/><polygon points="35,98 300,98 294,157" fill="#e12128" stroke="#065695" stroke-width="2" xlink:title="RAMspeed SMP - 2019-04-23 19:27 - 1.059x Faster Than 2019-04-22 21:32"/><polygon points="35,98 295,98 288,156" fill="#a3365c" stroke="#065695" stroke-width="2" xlink:title="RAMspeed SMP - 2019-04-22 20:02 - 1.021x Faster Than 2019-04-22 21:32"/><polygon points="35,98 290,98 283,155" fill="#1b75bb" stroke="#065695" stroke-width="2" xlink:title="RAMspeed SMP - 2019-04-23 00:40 - 1.010x Faster Than 2019-04-22 21:32"/><polygon points="35,98 287,98 281,154" fill="#009345" stroke="#065695" stroke-width="2" xlink:title="RAMspeed SMP - 2019-04-22 21:32 - 1.000x Faster Than 2019-04-22 21:32"/><polygon points="35,98 295,157 275,214" fill="#e12128" stroke="#065695" stroke-width="2" xlink:title="RAMspeed SMP - 2019-04-23 19:27 - 1.032x Faster Than 2019-04-23 00:40"/><polygon points="35,98 286,155 267,210" fill="#009345" stroke="#065695" stroke-width="2" xlink:title="RAMspeed SMP - 2019-04-22 21:32 - 1.020x Faster Than 2019-04-23 00:40"/><polygon points="35,98 283,155 264,208" fill="#a3365c" stroke="#065695" stroke-width="2" xlink:title="RAMspeed SMP - 2019-04-22 20:02 - 1.005x Faster Than 2019-04-23 00:40"/><polygon points="35,98 281,154 262,207" fill="#1b75bb" stroke="#065695" stroke-width="2" xlink:title="RAMspeed SMP - 2019-04-23 00:40 - 1.000x Faster Than 2019-04-23 00:40"/><polygon points="35,98 269,211 238,260" fill="#e12128" stroke="#065695" stroke-width="2" xlink:title="RAMspeed SMP - 2019-04-23 19:27 - 1.039x Faster Than 2019-04-23 00:40"/><polygon points="35,98 267,210 236,258" fill="#009345" stroke="#065695" stroke-width="2" xlink:title="RAMspeed SMP - 2019-04-22 21:32 - 1.032x Faster Than 2019-04-23 00:40"/><polygon points="35,98 263,208 233,256" fill="#a3365c" stroke="#065695" stroke-width="2" xlink:title="RAMspeed SMP - 2019-04-22 20:02 - 1.005x Faster Than 2019-04-23 00:40"/><polygon points="35,98 262,207 232,255" fill="#1b75bb" stroke="#065695" stroke-width="2" xlink:title="RAMspeed SMP - 2019-04-23 00:40 - 1.000x Faster Than 2019-04-23 00:40"/><polygon points="35,98 240,261 198,303" fill="#e12128" stroke="#065695" stroke-width="2" xlink:title="Tinymembench - 2019-04-23 19:27 - 1.158x Faster Than 2019-04-22 20:02"/><polygon points="35,98 238,260 197,301" fill="#009345" stroke="#065695" stroke-width="2" xlink:title="Tinymembench - 2019-04-22 21:32 - 1.118x Faster Than 2019-04-22 20:02"/><polygon points="35,98 233,256 193,296" fill="#1b75bb" stroke="#065695" stroke-width="2" xlink:title="Tinymembench - 2019-04-23 00:40 - 1.024x Faster Than 2019-04-22 20:02"/><polygon points="35,98 232,255 192,295" fill="#a3365c" stroke="#065695" stroke-width="2" xlink:title="Tinymembench - 2019-04-22 20:02 - 1.000x Faster Than 2019-04-22 20:02"/><polygon points="35,98 217,326 162,361" fill="#e12128" stroke="#065695" stroke-width="2" xlink:title="Tinymembench - 2019-04-23 19:27 - 2.091x Faster Than 2019-04-23 00:40"/><polygon points="35,98 211,318 157,352" fill="#009345" stroke="#065695" stroke-width="2" xlink:title="Tinymembench - 2019-04-22 21:32 - 1.890x Faster Than 2019-04-23 00:40"/><polygon points="35,98 196,300 147,330" fill="#a3365c" stroke="#065695" stroke-width="2" xlink:title="Tinymembench - 2019-04-22 20:02 - 1.303x Faster Than 2019-04-23 00:40"/><polygon points="35,98 192,295 144,325" fill="#1b75bb" stroke="#065695" stroke-width="2" xlink:title="Tinymembench - 2019-04-23 00:40 - 1.000x Faster Than 2019-04-23 00:40"/><polygon points="35,98 264,573 35,625" fill="#e12128" stroke="#065695" stroke-width="2" xlink:title="t-test1 - 2019-04-23 19:27 - 1.392x Faster Than 2019-04-22 20:02"/><polygon points="35,98 242,527 35,574" fill="#009345" stroke="#065695" stroke-width="2" xlink:title="t-test1 - 2019-04-22 21:32 - 1.178x Faster Than 2019-04-22 20:02"/><polygon points="35,98 177,394 35,426" fill="#1b75bb" stroke="#065695" stroke-width="2" xlink:title="t-test1 - 2019-04-23 00:40 - 1.108x Faster Than 2019-04-22 20:02"/><polygon points="35,98 144,325 35,350" fill="#a3365c" stroke="#065695" stroke-width="2" xlink:title="t-test1 - 2019-04-22 20:02 - 1.000x Faster Than 2019-04-22 20:02"/><path fill="#FEFEFE" stroke="#757575" stroke-width="1" d="M35,98 L287,98 A252,252 0 0,1 35,350 Z"/><text x="212.31938022375" y="239.40748706156" font-size="11" fill="#C80000" text-anchor="end" dominant-baseline="middle">Memory</text><text x="586" y="667" font-size="9" fill="#e12128" text-anchor="end" dominant-baseline="middle">16384MB</text><text x="586" y="658" font-size="9" fill="#009345" text-anchor="end" dominant-baseline="middle">8192MB</text><text x="586" y="649" font-size="9" fill="#1b75bb" text-anchor="end" dominant-baseline="middle">8192MB</text><text x="586" y="640" font-size="9" fill="#a3365c" text-anchor="end" dominant-baseline="middle">8192MB</text></svg>
