<?xml version="1.0"?>
<!DOCTYPE svg PUBLIC "-//W3C//DTD SVG 1.1//EN" "http://www.w3.org/Graphics/SVG/1.1/DTD/svg11.dtd">
<!--Phoronix Test Suite v8.6.1 [ http://www.phoronix-test-suite.com/ ]-->
<svg xmlns="http://www.w3.org/2000/svg" xmlns:xlink="http://www.w3.org/1999/xlink" version="1.1" font-family="sans-serif, droid-sans, helvetica, verdana, tahoma" viewbox="0 0 1000 310" width="1000" height="310" preserveAspectRatio="xMinYMin meet"><rect x="0" y="0" width="1000" height="310" fill="#FEFEFE" stroke="#757575" stroke-width="2"/><g stroke="#757575" stroke-width="1"/><g font-size="9" text-anchor="start" font-weight="bold"/><rect x="30" y="90.666666666667" width="960" height="120" fill="#BABABA" stroke="#757575" stroke-width="1"/><a xlink:href="http://www.phoronix-test-suite.com/" xlink:show="new"><text x="988" y="102.66666666667" font-size="10" fill="#065695" text-anchor="end" xlink:show="new">PHORONIX-TEST-SUITE.COM</text></a><g stroke="#757575" stroke-width="1" stroke-dasharray="5,5"><line x1="30" y1="192" x2="990" y2="192"/><line x1="30" y1="172" x2="990" y2="172"/><line x1="30" y1="152" x2="990" y2="152"/><line x1="30" y1="132" x2="990" y2="132"/><line x1="30" y1="112" x2="990" y2="112"/></g><g stroke="#757575" stroke-width="1"><line x1="26" y1="192" x2="34" y2="192"/><line x1="26" y1="172" x2="34" y2="172"/><line x1="26" y1="152" x2="34" y2="152"/><line x1="26" y1="132" x2="34" y2="132"/><line x1="26" y1="112" x2="34" y2="112"/></g><g stroke="#949494" stroke-width="1" stroke-dasharray="5,5"><line x1="41" y1="192" x2="990" y2="192"/><line x1="41" y1="172" x2="990" y2="172"/><line x1="41" y1="152" x2="990" y2="152"/><line x1="41" y1="132" x2="990" y2="132"/><line x1="41" y1="112" x2="990" y2="112"/></g><g font-size="10" fill="#065695" text-anchor="end"/><text x="78" y="214" font-size="6.5" fill="#231f20" text-anchor="middle" dominant-baseline="text-before-edge">RAMspeed SMP</text><rect x="39.6" y="92" width="19" height="119" fill="#e12128" stroke="#949494" stroke-width="1"/><rect x="58.6" y="98" width="19" height="113" fill="#009345" stroke="#949494" stroke-width="1"/><rect x="77.6" y="97" width="19" height="114" fill="#1b75bb" stroke="#949494" stroke-width="1"/><rect x="96.6" y="96" width="19" height="115" fill="#a3365c" stroke="#949494" stroke-width="1"/><text x="174" y="214" font-size="6.5" fill="#231f20" text-anchor="middle" dominant-baseline="text-before-edge">RAMspeed SMP</text><rect x="135.6" y="92" width="19" height="119" fill="#e12128" stroke="#949494" stroke-width="1"/><rect x="154.6" y="93" width="19" height="118" fill="#009345" stroke="#949494" stroke-width="1"/><rect x="173.6" y="95" width="19" height="116" fill="#1b75bb" stroke="#949494" stroke-width="1"/><rect x="192.6" y="95" width="19" height="116" fill="#a3365c" stroke="#949494" stroke-width="1"/><text x="270" y="214" font-size="6.5" fill="#231f20" text-anchor="middle" dominant-baseline="text-before-edge">RAMspeed SMP</text><rect x="231.6" y="92" width="19" height="119" fill="#e12128" stroke="#949494" stroke-width="1"/><rect x="250.6" y="93" width="19" height="118" fill="#009345" stroke="#949494" stroke-width="1"/><rect x="269.6" y="96" width="19" height="115" fill="#1b75bb" stroke="#949494" stroke-width="1"/><rect x="288.6" y="96" width="19" height="115" fill="#a3365c" stroke="#949494" stroke-width="1"/><text x="366" y="214" font-size="6.5" fill="#231f20" text-anchor="middle" dominant-baseline="text-before-edge">RAMspeed SMP</text><rect x="327.6" y="92" width="19" height="119" fill="#e12128" stroke="#949494" stroke-width="1"/><rect x="346.6" y="94" width="19" height="117" fill="#009345" stroke="#949494" stroke-width="1"/><rect x="365.6" y="98" width="19" height="113" fill="#1b75bb" stroke="#949494" stroke-width="1"/><rect x="384.6" y="96" width="19" height="115" fill="#a3365c" stroke="#949494" stroke-width="1"/><text x="462" y="214" font-size="6.5" fill="#231f20" text-anchor="middle" dominant-baseline="text-before-edge">Tinymembench</text><rect x="423.6" y="92" width="19" height="119" fill="#e12128" stroke="#949494" stroke-width="1"/><rect x="442.6" y="96" width="19" height="115" fill="#009345" stroke="#949494" stroke-width="1"/><rect x="461.6" y="106" width="19" height="105" fill="#1b75bb" stroke="#949494" stroke-width="1"/><rect x="480.6" y="108" width="19" height="103" fill="#a3365c" stroke="#949494" stroke-width="1"/><text x="558" y="214" font-size="6.5" fill="#231f20" text-anchor="middle" dominant-baseline="text-before-edge">Tinymembench</text><rect x="519.6" y="92" width="19" height="119" fill="#e12128" stroke="#949494" stroke-width="1"/><rect x="538.6" y="103" width="19" height="108" fill="#009345" stroke="#949494" stroke-width="1"/><rect x="557.6" y="154" width="19" height="57" fill="#1b75bb" stroke="#949494" stroke-width="1"/><rect x="576.6" y="137" width="19" height="74" fill="#a3365c" stroke="#949494" stroke-width="1"/><text x="654" y="214" font-size="6.5" fill="#231f20" text-anchor="middle" dominant-baseline="text-before-edge">t-test1</text><rect x="615.6" y="92" width="19" height="119" fill="#e12128" stroke="#949494" stroke-width="1"/><rect x="634.6" y="110" width="19" height="101" fill="#009345" stroke="#949494" stroke-width="1"/><rect x="653.6" y="116" width="19" height="95" fill="#1b75bb" stroke="#949494" stroke-width="1"/><rect x="672.6" y="126" width="19" height="85" fill="#a3365c" stroke="#949494" stroke-width="1"/><text x="495" y="19" font-size="17" fill="#231f20" text-anchor="middle" xlink:show="new">Memory</text><a xlink:href="https://www.phoronix-test-suite.com/" xlink:show="new"><text x="990" y="87.666666666667" font-size="7" fill="#949494" text-anchor="end" xlink:show="new">Phoronix Test Suite 8.6.1</text></a></svg>
