<?xml version="1.0"?>
<!DOCTYPE svg PUBLIC "-//W3C//DTD SVG 1.1//EN" "http://www.w3.org/Graphics/SVG/1.1/DTD/svg11.dtd">
<!--Phoronix Test Suite v8.6.1 [ http://www.phoronix-test-suite.com/ ]-->
<svg xmlns="http://www.w3.org/2000/svg" xmlns:xlink="http://www.w3.org/1999/xlink" version="1.1" font-family="sans-serif, droid-sans, helvetica, verdana, tahoma" viewbox="0 0 600 320" width="600" height="320" preserveAspectRatio="xMinYMin meet"><rect x="0" y="0" width="600" height="320" fill="#FEFEFE" stroke="#757575" stroke-width="2"/><g stroke="#757575" stroke-width="1"><line x1="176" y1="64" x2="176" y2="249"/><line x1="176" y1="248" x2="586" y2="248"/></g><a xlink:href="http://www.phoronix-test-suite.com/" xlink:show="new"><text x="585" y="59" font-size="8" fill="#065695" text-anchor="end" xlink:show="new">PHORONIX-TEST-SUITE.COM</text></a><polygon points="185,56 176,60.5 176,51.5" fill="#065695" stroke="#949494" stroke-width="1"/><text x="188" y="59" font-size="8" fill="#065695" text-anchor="start">Nodes Per Second, More Is Better</text><rect x="0" y="0" width="600" height="48" fill="#231f20"/><a xlink:href="https://openbenchmarking.org/test/pts/crafty-1.4.4" xlink:show="new"><text x="6" y="19" font-size="17" fill="#FEFEFE" text-anchor="start" xlink:show="new" font-weight="bold">Crafty v25.2</text></a><text x="6" y="36" font-size="11" font-weight="bold" fill="#FEFEFE" text-anchor="start">Elapsed Time</text><path d="m74 22v9m-5-16v16m-5-28v28m-23-2h12.5c2.485281 0 4.5-2.014719 4.5-4.5s-2.014719-4.5-4.5-4.5h-8c-2.485281 0-4.5-2.014719-4.5-4.5s2.014719-4.5 4.5-4.5h12.5m-21 5h-11m11 13h-2c-4.970563 0-9-4.029437-9-9v-20m-24 40v-20c0-4.970563 4.0294373-9 9-9 4.970563 0 9 4.029437 9 9s-4.029437 9-9 9h-9" stroke="#ffffff" stroke-width="4" fill="none" transform="translate(508,4)"/><line x1="176" y1="110" x2="176" y2="204" stroke="#757575" stroke-width="11" stroke-dasharray="1,45"/><g font-size="10" fill="#231f20" font-weight="bold"><text x="171" y="85" text-anchor="end">Intel Core i7-8750H #1</text><text x="171" y="131" text-anchor="end">12 x Intel Core</text><text x="171" y="177" text-anchor="end">Intel Core i7-8750H #2</text><text x="171" y="223" text-anchor="end">4 x Intel Core i7-8750H</text></g><g font-size="10" fill="#065695" text-anchor="middle"><text x="246" y="263">2000000</text><text x="314" y="263">4000000</text><text x="382" y="263">6000000</text><text x="450" y="263">8000000</text><text x="518" y="263">10000000</text></g><g stroke="#BABABA" stroke-width="1"><line x1="246" y1="64" x2="246" y2="243" stroke-dasharray="5,5"/><line x1="246" y1="244" x2="246" y2="253"/><line x1="314" y1="64" x2="314" y2="243" stroke-dasharray="5,5"/><line x1="314" y1="244" x2="314" y2="253"/><line x1="382" y1="64" x2="382" y2="243" stroke-dasharray="5,5"/><line x1="382" y1="244" x2="382" y2="253"/><line x1="450" y1="64" x2="450" y2="243" stroke-dasharray="5,5"/><line x1="450" y1="244" x2="450" y2="253"/><line x1="518" y1="64" x2="518" y2="243" stroke-dasharray="5,5"/><line x1="518" y1="244" x2="518" y2="253"/></g><g stroke="#949494" stroke-width="1"><rect x="176" y="70" height="34" width="273" fill="#0b5997" xlink:title="Intel Core i7-8750H #1: 8017177"/><rect x="176" y="116" height="34" width="264" fill="#0b5997" xlink:title="12 x Intel Core: 7743512"/><rect x="176" y="162" height="34" width="263" fill="#0b5997" xlink:title="Intel Core i7-8750H #2: 7719662"/><rect x="176" y="208" height="34" width="261" fill="#0b5997" xlink:title="4 x Intel Core i7-8750H: 7648341"/></g><g font-size="8" fill="#065695" text-anchor="end"><text y="101" x="171">SE +/- 6198.13</text><text y="147" x="171">SE +/- 84609.08</text><text y="193" x="171">SE +/- 7499.87</text><text y="239" x="171">SE +/- 17898.33</text></g><g font-size="10" fill="#FFFFFF" font-weight="bold" text-anchor="end"><text x="444" y="93">8017177</text><text x="435" y="139">7743512</text><text x="434" y="185">7719662</text><text x="432" y="231">7648341</text></g><rect x="0" y="270" width="600" height="50" fill="#231f20"/><a xlink:href="https://www.phoronix-test-suite.com/" xlink:show="new"><text x="585" y="282" font-size="9" fill="#FEFEFE" text-anchor="end" xlink:show="new">Phoronix Test Suite 8.6.1</text></a><text x="5" y="296" font-size="8" fill="#FEFEFE" text-anchor="start" xlink:title="-pthread -lstdc++ -fprofile-use -lm" width="595">1. (CC) gcc options: -pthread -lstdc++ -fprofile-use -lm</text></svg>
