<?xml version="1.0"?>
<!DOCTYPE svg PUBLIC "-//W3C//DTD SVG 1.1//EN" "http://www.w3.org/Graphics/SVG/1.1/DTD/svg11.dtd">
<!--Phoronix Test Suite v8.6.1 [ http://www.phoronix-test-suite.com/ ]-->
<svg xmlns="http://www.w3.org/2000/svg" xmlns:xlink="http://www.w3.org/1999/xlink" version="1.1" font-family="sans-serif, droid-sans, helvetica, verdana, tahoma" viewbox="0 0 1007 169" width="1007" height="169" preserveAspectRatio="xMinYMin meet"><rect x="0" y="0" width="1007" height="169" fill="#FEFEFE" stroke="#757575" stroke-width="2"/><rect x="1" y="1" width="1006" height="168" fill="#FEFEFE" stroke="#757575" stroke-width="1"/><path d="m74 22v9m-5-16v16m-5-28v28m-23-2h12.5c2.485281 0 4.5-2.014719 4.5-4.5s-2.014719-4.5-4.5-4.5h-8c-2.485281 0-4.5-2.014719-4.5-4.5s2.014719-4.5 4.5-4.5h12.5m-21 5h-11m11 13h-2c-4.970563 0-9-4.029437-9-9v-20m-24 40v-20c0-4.970563 4.0294373-9 9-9 4.970563 0 9 4.029437 9 9s-4.029437 9-9 9h-9" stroke="#000000" stroke-width="4" fill="none" transform="translate(114,28)"/><line x1="307" y1="89" x2="1007" y2="89" stroke="#BABABA" stroke-width="128" stroke-dasharray="175,175"/><line x1="504" y1="73" x2="504" y2="153" stroke="#949494" stroke-width="1007" stroke-dasharray="16,16"/><line x1="307" y1="89" x2="1007" y2="89" stroke="#757575" stroke-width="128" stroke-dasharray="1,174"/><rect x="1" y="1" width="1005" height="25" fill="#231f20"/><text x="5" y="19" font-size="17" fill="#FEFEFE" text-anchor="start">Processor</text><line x1="1" y1="25" x2="1006" y2="25" stroke="#757575" stroke-width="1"/><g font-size="10" font-weight="bold" fill="#065695" text-anchor="end"><a xlink:href="https://openbenchmarking.org/test/pts/scimark2-1.3.2" xlink:show="new"><text x="305" y="85">scimark2: Composite</text></a><a xlink:href="https://openbenchmarking.org/test/pts/crafty-1.4.4" xlink:show="new"><text x="305" y="101">crafty: Elapsed Time</text></a><a xlink:href="https://openbenchmarking.org/test/pts/build-linux-kernel-1.9.1" xlink:show="new"><text x="305" y="117">build-linux-kernel: Time To Compile</text></a><a xlink:href="https://openbenchmarking.org/test/pts/c-ray-1.2.0" xlink:show="new"><text x="305" y="133">c-ray: Total Time - 4K, 16 Rays Per Pixel</text></a><a xlink:href="https://openbenchmarking.org/test/pts/ffmpeg-2.8.0" xlink:show="new"><text x="305" y="149">ffmpeg: H.264 HD To NTSC DV</text></a></g><g font-size="10" fill="#065695" font-weight="bold" text-anchor="middle" dominant-baseline="text-before-edge"><text x="395" y="49">Host</text><text x="570" y="49">KVM</text><text x="745" y="49">VirtualBox</text><text x="920" y="49">VMWare</text></g><g fill="#BABABA"/><g text-anchor="middle" font-size="10" fill="#065695"><text x="395" y="86" xlink:title="STD Dev: 0.17%;  STD Error: 0.62" fill="#005a00">630.69</text><text x="395" y="102" xlink:title="STD Dev: 0.13%;  STD Error: 6198.13" fill="#005a00">8017177</text><text x="395" y="118" xlink:title="STD Dev: 0.93%;  STD Error: 0.75">138.75</text><text x="395" y="134" xlink:title="STD Dev: 0.29%;  STD Error: 0.22" fill="#005a00">133.89</text><text x="395" y="150" xlink:title="STD Dev: 1.76%;  STD Error: 0.05" fill="#005a00">5.41</text><text x="570" y="86" xlink:title="STD Dev: 1.45%;  STD Error: 4.86" fill="#C80000">581.72</text><text x="570" y="102" xlink:title="STD Dev: 3.79%;  STD Error: 84609.08">7743512</text><text x="570" y="118" xlink:title="STD Dev: 0.67%;  STD Error: 0.53" fill="#005a00">136.84</text><text x="570" y="134" xlink:title="STD Dev: 0.36%;  STD Error: 0.28">135.09</text><text x="570" y="150" xlink:title="STD Dev: 3.34%;  STD Error: 0.12">6.46</text><text x="745" y="86" xlink:title="STD Dev: 0.35%;  STD Error: 1.24">613.86</text><text x="745" y="102" xlink:title="STD Dev: 0.17%;  STD Error: 7499.87">7719662</text><text x="745" y="118" xlink:title="STD Dev: 0.92%;  STD Error: 0.83" fill="#C80000">156.11</text><text x="745" y="134" xlink:title="STD Dev: 0.28%;  STD Error: 0.23" fill="#C80000">138.65</text><text x="745" y="150" xlink:title="STD Dev: 2.36%;  STD Error: 0.09" fill="#C80000">6.51</text><text x="920" y="86" xlink:title="STD Dev: 0.32%;  STD Error: 1.15">611.96</text><text x="920" y="102" xlink:title="STD Dev: 0.41%;  STD Error: 17898.33" fill="#C80000">7648341</text><text x="920" y="118" xlink:title="STD Dev: 0.64%;  STD Error: 0.53">144.34</text><text x="920" y="134" xlink:title="STD Dev: 0.24%;  STD Error: 0.19">136.15</text><text x="920" y="150" xlink:title="STD Dev: 0.51%;  STD Error: 0.02">5.84</text></g><line x1="504" y1="73" x2="504" y2="153" stroke="#949494" stroke-width="1007" stroke-dasharray="1,15"/><rect x="0" y="153" width="1007" height="16" fill="#231f20"/><a xlink:href="http://www.phoronix-test-suite.com/" xlink:show="new"><text x="1005" y="166" font-size="10" fill="#FFFFFF" text-anchor="end" xlink:show="new">PHORONIX-TEST-SUITE.COM</text></a></svg>
