<?xml version="1.0"?>
<!DOCTYPE svg PUBLIC "-//W3C//DTD SVG 1.1//EN" "http://www.w3.org/Graphics/SVG/1.1/DTD/svg11.dtd">
<!--Phoronix Test Suite v8.6.1 [ http://www.phoronix-test-suite.com/ ]-->
<svg xmlns="http://www.w3.org/2000/svg" xmlns:xlink="http://www.w3.org/1999/xlink" version="1.1" font-family="sans-serif, droid-sans, helvetica, verdana, tahoma" viewbox="0 0 600 698" width="600" height="698" preserveAspectRatio="xMinYMin meet"><rect x="0" y="0" width="600" height="698" fill="#FEFEFE" stroke="#757575" stroke-width="2"/><rect x="0" y="0" width="600" height="48" fill="#231f20"/><image xlink:href="https://openbenchmarking.org/static/images/pts-77x40-white.png" x="10" y="2" width="77" height="40"/><text x="100" y="21" font-size="17" fill="#FEFEFE" text-anchor="start">Processor</text><text x="100" y="33" font-size="9" fill="#FEFEFE" text-anchor="start" href="http://www.phoronix-test-suite.com/">Phoronix Test Suite 8.6.1</text><path fill="#FEFEFE" stroke="#949494" stroke-width="1" stroke-dasharray="10,20" d="M35,98 L562,98 A527,527 0 0,1 35,625 Z"/><text x="562" y="90" font-size="10" fill="#757575" text-anchor="middle">1.2</text><line x1="562" y1="92" x2="562" y2="98" stroke="#757575" stroke-width="1"/><text x="27" y="625" font-size="10" fill="#757575" text-anchor="end" dominant-baseline="middle">1.2</text><line x1="29" y1="625" x2="35" y2="625" stroke="#757575" stroke-width="1"/><path fill="#FEFEFE" stroke="#949494" stroke-width="1" stroke-dasharray="10,20" d="M35,98 L562,98 A527,527 0 0,1 35,625 Z"/><text x="562" y="90" font-size="10" fill="#757575" text-anchor="middle">1.2</text><line x1="562" y1="92" x2="562" y2="98" stroke="#757575" stroke-width="1"/><text x="27" y="625" font-size="10" fill="#757575" text-anchor="end" dominant-baseline="middle">1.2</text><line x1="29" y1="625" x2="35" y2="625" stroke="#757575" stroke-width="1"/><path fill="#FEFEFE" stroke="#949494" stroke-width="1" stroke-dasharray="10,20" d="M35,98 L518,98 A483,483 0 0,1 35,581 Z"/><text x="518" y="90" font-size="10" fill="#757575" text-anchor="middle">1.1</text><line x1="518" y1="92" x2="518" y2="98" stroke="#757575" stroke-width="1"/><text x="27" y="581" font-size="10" fill="#757575" text-anchor="end" dominant-baseline="middle">1.1</text><line x1="29" y1="581" x2="35" y2="581" stroke="#757575" stroke-width="1"/><path fill="#FEFEFE" stroke="#949494" stroke-width="1" stroke-dasharray="10,20" d="M35,98 L518,98 A483,483 0 0,1 35,581 Z"/><text x="518" y="90" font-size="10" fill="#757575" text-anchor="middle">1.1</text><line x1="518" y1="92" x2="518" y2="98" stroke="#757575" stroke-width="1"/><text x="27" y="581" font-size="10" fill="#757575" text-anchor="end" dominant-baseline="middle">1.1</text><line x1="29" y1="581" x2="35" y2="581" stroke="#757575" stroke-width="1"/><path fill="#FEFEFE" stroke="#949494" stroke-width="1" stroke-dasharray="10,20" d="M35,98 L518,98 A483,483 0 0,1 35,581 Z"/><text x="518" y="90" font-size="10" fill="#757575" text-anchor="middle">1.1</text><line x1="518" y1="92" x2="518" y2="98" stroke="#757575" stroke-width="1"/><text x="27" y="581" font-size="10" fill="#757575" text-anchor="end" dominant-baseline="middle">1.1</text><line x1="29" y1="581" x2="35" y2="581" stroke="#757575" stroke-width="1"/><path fill="#FEFEFE" stroke="#949494" stroke-width="1" stroke-dasharray="10,20" d="M35,98 L474,98 A439,439 0 0,1 35,537 Z"/><text x="474" y="90" font-size="10" fill="#757575" text-anchor="middle">1.0</text><line x1="474" y1="92" x2="474" y2="98" stroke="#757575" stroke-width="1"/><text x="27" y="537" font-size="10" fill="#757575" text-anchor="end" dominant-baseline="middle">1.0</text><line x1="29" y1="537" x2="35" y2="537" stroke="#757575" stroke-width="1"/><path fill="#FEFEFE" stroke="#949494" stroke-width="1" stroke-dasharray="10,20" d="M35,98 L474,98 A439,439 0 0,1 35,537 Z"/><text x="474" y="90" font-size="10" fill="#757575" text-anchor="middle">1.0</text><line x1="474" y1="92" x2="474" y2="98" stroke="#757575" stroke-width="1"/><text x="27" y="537" font-size="10" fill="#757575" text-anchor="end" dominant-baseline="middle">1.0</text><line x1="29" y1="537" x2="35" y2="537" stroke="#757575" stroke-width="1"/><line x1="35" y1="98" x2="590" y2="98" stroke="#757575" stroke-width="1"/><line x1="35" y1="98" x2="35" y2="676" stroke="#757575" stroke-width="1"/><line x1="590" y1="676" x2="590" y2="98" stroke="#757575" stroke-width="1"/><line x1="35" y1="676" x2="590" y2="676" stroke="#757575" stroke-width="1"/><polygon points="35,98 511,98 488,245" fill="#e12128" stroke="#065695" stroke-width="2" xlink:title="Crafty - Intel Core i7-8750H #1 - 1.048x Faster Than 4 x Intel Core i7-8750H"/><polygon points="35,98 498,98 475,241" fill="#009345" stroke="#065695" stroke-width="2" xlink:title="Crafty - 12 x Intel Core - 1.012x Faster Than 4 x Intel Core i7-8750H"/><polygon points="35,98 497,98 474,241" fill="#1b75bb" stroke="#065695" stroke-width="2" xlink:title="Crafty - Intel Core i7-8750H #2 - 1.009x Faster Than 4 x Intel Core i7-8750H"/><polygon points="35,98 474,98 453,234" fill="#a3365c" stroke="#065695" stroke-width="2" xlink:title="Crafty - 4 x Intel Core i7-8750H - 1.000x Faster Than 4 x Intel Core i7-8750H"/><polygon points="35,98 473,240 407,368" fill="#009345" stroke="#065695" stroke-width="2" xlink:title="Timed Linux Kernel Compilation - 12 x Intel Core - 1.139x Faster Than Intel Core i7-8750H #2"/><polygon points="35,98 458,235 394,359" fill="#e12128" stroke="#065695" stroke-width="2" xlink:title="Timed Linux Kernel Compilation - Intel Core i7-8750H #1 - 1.122x Faster Than Intel Core i7-8750H #2"/><polygon points="35,98 456,235 393,358" fill="#a3365c" stroke="#065695" stroke-width="2" xlink:title="Timed Linux Kernel Compilation - 4 x Intel Core i7-8750H - 1.083x Faster Than Intel Core i7-8750H #2"/><polygon points="35,98 453,234 390,356" fill="#1b75bb" stroke="#065695" stroke-width="2" xlink:title="Timed Linux Kernel Compilation - Intel Core i7-8750H #2 - 1.000x Faster Than Intel Core i7-8750H #2"/><polygon points="35,98 440,392 329,503" fill="#e12128" stroke="#065695" stroke-width="2" xlink:title="C-Ray - Intel Core i7-8750H #1 - 1.037x Faster Than Intel Core i7-8750H #2"/><polygon points="35,98 433,388 325,496" fill="#009345" stroke="#065695" stroke-width="2" xlink:title="C-Ray - 12 x Intel Core - 1.030x Faster Than Intel Core i7-8750H #2"/><polygon points="35,98 420,377 314,483" fill="#a3365c" stroke="#065695" stroke-width="2" xlink:title="C-Ray - 4 x Intel Core i7-8750H - 1.022x Faster Than Intel Core i7-8750H #2"/><polygon points="35,98 390,356 293,453" fill="#1b75bb" stroke="#065695" stroke-width="2" xlink:title="C-Ray - Intel Core i7-8750H #2 - 1.000x Faster Than Intel Core i7-8750H #2"/><polygon points="35,98 303,466 176,531" fill="#e12128" stroke="#065695" stroke-width="2" xlink:title="FFmpeg - Intel Core i7-8750H #1 - 1.203x Faster Than Intel Core i7-8750H #2"/><polygon points="35,98 301,464 175,528" fill="#a3365c" stroke="#065695" stroke-width="2" xlink:title="FFmpeg - 4 x Intel Core i7-8750H - 1.115x Faster Than Intel Core i7-8750H #2"/><polygon points="35,98 299,461 174,525" fill="#009345" stroke="#065695" stroke-width="2" xlink:title="FFmpeg - 12 x Intel Core - 1.008x Faster Than Intel Core i7-8750H #2"/><polygon points="35,98 293,453 171,516" fill="#1b75bb" stroke="#065695" stroke-width="2" xlink:title="FFmpeg - Intel Core i7-8750H #2 - 1.000x Faster Than Intel Core i7-8750H #2"/><path fill="#FEFEFE" stroke="#757575" stroke-width="1" d="M35,98 L474,98 A439,439 0 0,1 35,537 Z"/><text x="354.64261447754" y="330.23395318076" font-size="11" fill="#C80000" text-anchor="end" dominant-baseline="middle">Processor</text><text x="586" y="667" font-size="9" fill="#e12128" text-anchor="end" dominant-baseline="middle">Intel Core i7-8750H @ 4.10GHz (6 Cores / 12 Threads)</text><text x="586" y="658" font-size="9" fill="#009345" text-anchor="end" dominant-baseline="middle">12 x Intel Core (Broadwell no TSX IBRS) (12 Cores)</text><text x="586" y="649" font-size="9" fill="#1b75bb" text-anchor="end" dominant-baseline="middle">Intel Core i7-8750H (12 Cores)</text><text x="586" y="640" font-size="9" fill="#a3365c" text-anchor="end" dominant-baseline="middle">4 x Intel Core i7-8750H (12 Cores)</text></svg>
