<?xml version="1.0"?>
<!DOCTYPE svg PUBLIC "-//W3C//DTD SVG 1.1//EN" "http://www.w3.org/Graphics/SVG/1.1/DTD/svg11.dtd">
<!--Phoronix Test Suite v8.6.1 [ http://www.phoronix-test-suite.com/ ]-->
<svg xmlns="http://www.w3.org/2000/svg" xmlns:xlink="http://www.w3.org/1999/xlink" version="1.1" font-family="sans-serif, droid-sans, helvetica, verdana, tahoma" viewbox="0 0 1000 310" width="1000" height="310" preserveAspectRatio="xMinYMin meet"><rect x="0" y="0" width="1000" height="310" fill="#FEFEFE" stroke="#757575" stroke-width="2"/><g stroke="#757575" stroke-width="1"/><g font-size="9" text-anchor="start" font-weight="bold"/><rect x="30" y="90.666666666667" width="960" height="120" fill="#BABABA" stroke="#757575" stroke-width="1"/><a xlink:href="http://www.phoronix-test-suite.com/" xlink:show="new"><text x="988" y="102.66666666667" font-size="10" fill="#065695" text-anchor="end" xlink:show="new">PHORONIX-TEST-SUITE.COM</text></a><g stroke="#757575" stroke-width="1" stroke-dasharray="5,5"><line x1="30" y1="192" x2="990" y2="192"/><line x1="30" y1="172" x2="990" y2="172"/><line x1="30" y1="152" x2="990" y2="152"/><line x1="30" y1="132" x2="990" y2="132"/><line x1="30" y1="112" x2="990" y2="112"/></g><g stroke="#757575" stroke-width="1"><line x1="26" y1="192" x2="34" y2="192"/><line x1="26" y1="172" x2="34" y2="172"/><line x1="26" y1="152" x2="34" y2="152"/><line x1="26" y1="132" x2="34" y2="132"/><line x1="26" y1="112" x2="34" y2="112"/></g><g stroke="#949494" stroke-width="1" stroke-dasharray="5,5"><line x1="41" y1="192" x2="990" y2="192"/><line x1="41" y1="172" x2="990" y2="172"/><line x1="41" y1="152" x2="990" y2="152"/><line x1="41" y1="132" x2="990" y2="132"/><line x1="41" y1="112" x2="990" y2="112"/></g><g font-size="10" fill="#065695" text-anchor="end"/><text x="98.5" y="214" font-size="6.5" fill="#231f20" text-anchor="middle" dominant-baseline="text-before-edge">SciMark</text><rect x="43.7" y="92" width="27" height="119" fill="#e12128" stroke="#949494" stroke-width="1"/><rect x="70.7" y="101" width="27" height="110" fill="#009345" stroke="#949494" stroke-width="1"/><rect x="97.7" y="95" width="27" height="116" fill="#1b75bb" stroke="#949494" stroke-width="1"/><rect x="124.7" y="95" width="27" height="116" fill="#a3365c" stroke="#949494" stroke-width="1"/><text x="235.5" y="214" font-size="6.5" fill="#231f20" text-anchor="middle" dominant-baseline="text-before-edge">Crafty</text><rect x="180.7" y="92" width="27" height="119" fill="#e12128" stroke="#949494" stroke-width="1"/><rect x="207.7" y="96" width="27" height="115" fill="#009345" stroke="#949494" stroke-width="1"/><rect x="234.7" y="96" width="27" height="115" fill="#1b75bb" stroke="#949494" stroke-width="1"/><rect x="261.7" y="97" width="27" height="114" fill="#a3365c" stroke="#949494" stroke-width="1"/><text x="372.5" y="214" font-size="6.5" fill="#231f20" text-anchor="middle" dominant-baseline="text-before-edge">Timed Linux Kernel Compilation</text><rect x="317.7" y="93" width="27" height="118" fill="#e12128" stroke="#949494" stroke-width="1"/><rect x="344.7" y="92" width="27" height="119" fill="#009345" stroke="#949494" stroke-width="1"/><rect x="371.7" y="106" width="27" height="105" fill="#1b75bb" stroke="#949494" stroke-width="1"/><rect x="398.7" y="98" width="27" height="113" fill="#a3365c" stroke="#949494" stroke-width="1"/><text x="509.5" y="214" font-size="6.5" fill="#231f20" text-anchor="middle" dominant-baseline="text-before-edge">C-Ray</text><rect x="454.7" y="92" width="27" height="119" fill="#e12128" stroke="#949494" stroke-width="1"/><rect x="481.7" y="93" width="27" height="118" fill="#009345" stroke="#949494" stroke-width="1"/><rect x="508.7" y="96" width="27" height="115" fill="#1b75bb" stroke="#949494" stroke-width="1"/><rect x="535.7" y="93" width="27" height="118" fill="#a3365c" stroke="#949494" stroke-width="1"/><text x="646.5" y="214" font-size="6.5" fill="#231f20" text-anchor="middle" dominant-baseline="text-before-edge">FFmpeg</text><rect x="591.7" y="92" width="27" height="119" fill="#e12128" stroke="#949494" stroke-width="1"/><rect x="618.7" y="111" width="27" height="100" fill="#009345" stroke="#949494" stroke-width="1"/><rect x="645.7" y="112" width="27" height="99" fill="#1b75bb" stroke="#949494" stroke-width="1"/><rect x="672.7" y="101" width="27" height="110" fill="#a3365c" stroke="#949494" stroke-width="1"/><text x="495" y="19" font-size="17" fill="#231f20" text-anchor="middle" xlink:show="new">Processor</text><a xlink:href="https://www.phoronix-test-suite.com/" xlink:show="new"><text x="990" y="87.666666666667" font-size="7" fill="#949494" text-anchor="end" xlink:show="new">Phoronix Test Suite 8.6.1</text></a></svg>
